<?xml version="1.0" encoding="utf-8"?>
<!-- Generator: Adobe Illustrator 22.1.0, SVG Export Plug-In . SVG Version: 6.00 Build 0)  -->
<svg version="1.1" id="Layer_1" xmlns="http://www.w3.org/2000/svg" xmlns:xlink="http://www.w3.org/1999/xlink" x="0px" y="0px"
	 viewBox="0 0 355.5 698.1" style="enable-background:new 0 0 355.5 698.1;" xml:space="preserve">
<style type="text/css">
	.st0{fill:#FF9F43;}
	.st1{fill:#48DBFB;}
	.st2{fill:#333333;}
	.st3{fill:#0ABDE3;}
	.st4{fill:#F368E0;}
	.st5{fill:#576574;}
	.st6{fill:#2E86DE;}
	.st7{fill:#FF9FF3;}
	.st8{fill:#8395A7;}
	.st9{fill:#1DD1A1;}
	.st10{fill:#FECA57;}
	.st11{fill:#222F3E;}
	.st12{fill:#EE5253;}
	.st13{fill:#FF6B6B;}
	.st14{fill:#5F27CD;}
	.st15{fill:#F368E0;stroke:#FFFFFF;stroke-width:2;stroke-miterlimit:10;}
	.st16{fill:#5F27CD;stroke:#FFFFFF;stroke-width:2;stroke-miterlimit:10;}
	.st17{fill:#1DD1A1;stroke:#FFFFFF;stroke-width:2;stroke-miterlimit:10;}
	.st18{fill:#222F3E;stroke:#FFFFFF;stroke-width:2;stroke-miterlimit:10;}
	.st19{fill:#FECA57;stroke:#FFFFFF;stroke-width:2;stroke-miterlimit:10;}
	.st20{fill:#0ABDE3;stroke:#FFFFFF;stroke-width:2;stroke-miterlimit:10;}
	.st21{fill:#48DBFB;stroke:#FFFFFF;stroke-width:2;stroke-miterlimit:10;}
	.st22{fill:#576574;stroke:#FFFFFF;stroke-width:2;stroke-miterlimit:10;}
	.st23{fill:#2E86DE;stroke:#FFFFFF;stroke-width:2;stroke-miterlimit:10;}
	.st24{fill:#FF9FF3;stroke:#FFFFFF;stroke-width:2;stroke-miterlimit:10;}
	.st25{fill:#EE5253;stroke:#FFFFFF;stroke-width:2;stroke-miterlimit:10;}
	.st26{fill:#FF6B6B;stroke:#FFFFFF;stroke-width:2;stroke-miterlimit:10;}
	.st27{fill:#FF9F43;stroke:#FFFFFF;stroke-width:2;stroke-miterlimit:10;}
	.st28{fill:#8395A7;stroke:#FFFFFF;stroke-width:2;stroke-miterlimit:10;}
	.st29{fill:#FFFFFF;}
	.st30{fill:#FFFFFF;stroke:#FFFFFF;stroke-miterlimit:10;}
	.st31{fill:none;stroke:#1A1A1A;stroke-width:2;stroke-miterlimit:10;}
	.st32{fill:none;stroke:#1A1A1A;stroke-miterlimit:10;}
	.st33{fill:none;}
	.st34{fill-rule:evenodd;clip-rule:evenodd;fill:#231F20;}
	.st35{clip-path:url(#SVGID_2_);fill:#FFFFFF;}
	.st36{clip-path:url(#SVGID_2_);fill:#333333;}
	.st37{clip-path:url(#SVGID_2_);}
	.st38{clip-path:url(#SVGID_2_);fill:#48DBFB;stroke:#FFFFFF;stroke-width:2;stroke-miterlimit:10;}
	.st39{clip-path:url(#SVGID_4_);fill:#FFFFFF;}
	.st40{clip-path:url(#SVGID_4_);fill:#333333;}
	.st41{clip-path:url(#SVGID_4_);}
	.st42{clip-path:url(#SVGID_4_);fill:#48DBFB;stroke:#FFFFFF;stroke-width:2;stroke-miterlimit:10;}
	.st43{fill:none;stroke:#000000;stroke-miterlimit:10;}
	.st44{clip-path:url(#SVGID_6_);}
	.st45{fill:#FF9F43;stroke:#000000;stroke-miterlimit:10;}
</style>
<g>
	<path d="M256.9,182.7c0,0-13,4-34-6s-81,8-97,5c-14.8-2.8-33-3-33-3c4-6,11-20.8,8.5-47.9s6.4-33,11.5-55.1
		c17.8-77.5,107.6-62.1,129-6c6.4,16.8,13.4,27.6,12.2,57.8S256.9,182.7,256.9,182.7z"/>
	<path class="st2" d="M234.9,91c0,33.9-25.5,81.6-57,81.6s-57-47.7-57-81.6s25.5-61.4,57-61.4S234.9,57.1,234.9,91z"/>
	<path d="M195.9,30.7c-51-26-80.7,37.5-76,63c0,0,12.9-19.1,26-24C177.9,57.7,195.9,30.7,195.9,30.7z"/>
	<path class="st2" d="M312.2,386.4c-1.8-3.7-2.8-9.4-4-10.3c-1.7-3.5-5-5.9-8.8-7c-3.8-1.1-7.7,0.3-10.8,3.3c0,0-0.1-0.1-0.1-0.1
		c-0.7-0.3-1.8,1.6-2.9,4.1c-0.5,0.9-0.9,1.8-1.3,2.7l0,0c0,0.1,0,0.2,0,0.2c-0.2,0.6-0.4,1.3-0.6,1.9c-0.3,0.9-0.6,1.8-0.9,2.6
		c-1.6,4.7-1.9,9-0.5,9.6c1.3,0.6,3.7-2.7,5.3-7.4c0.1,0.1,0.2,0.2,0.3,0.3c-0.3,0.8-0.6,1.7-0.9,2.6c-2,6.6-2.3,12.5-0.7,13.1
		c1.6,0.6,4.6-4.3,6.6-10.9c0.2-0.6,0.3-1.2,0.5-1.8c0.1,0,0.1,0,0.2,0.1c-0.2,0.9-0.5,1.8-0.7,2.7c-1.7,7.4-1.7,13.8-0.1,14.3
		c1.7,0.5,4.4-5.1,6.1-12.5c0.2-1,0.4-2,0.6-2.9c0,0.7-0.1,1.4-0.1,2.2c0,6.8,1.4,12.3,3.1,12.3c1.7,0,3.1-5.4,3.1-12.2
		c0-1.4-0.1-2.7-0.2-3.9c0.1-0.1,0.3-0.2,0.4-0.2c0.1,0.3,0.2,0.5,0.3,0.8c2.1,4.3,5.1,6.9,6.8,6
		C314.6,394.9,314.3,390.7,312.2,386.4z"/>
	<path class="st2" d="M73.6,385.9c-0.3-0.8-0.6-1.7-0.9-2.6c-0.2-0.7-0.4-1.3-0.6-1.9c0-0.1,0-0.2,0-0.2l0,0c-0.4-1-0.8-1.9-1.3-2.7
		c-1.1-2.5-2.2-4.4-2.9-4.1c0,0-0.1,0.1-0.1,0.1c-3.1-3-7-4.4-10.8-3.3c-3.8,1.1-7,3.5-8.8,7c-1.3,1-2.3,6.7-4,10.3
		c-2.1,4.3-2.4,8.5-0.8,9.5c1.7,1,4.7-1.7,6.8-6c0.1-0.2,0.2-0.5,0.3-0.8c0.1,0.1,0.3,0.2,0.4,0.2c-0.1,1.2-0.2,2.5-0.2,3.9
		c0,6.8,1.4,12.2,3.1,12.2c1.7,0,3.1-5.6,3.1-12.3c0-0.7,0-1.4,0-2c0.1,0.6,0.3,1.3,0.4,1.9c1.6,7,4.2,12.2,5.9,11.7
		c1.7-0.5,1.7-6.5,0.1-13.4c-0.1-0.6-0.3-1.3-0.5-1.9c0.1,0,0.1,0,0.2-0.1c0.2,0.6,0.3,1.2,0.5,1.8c2,6.6,4.9,11.5,6.6,10.9
		c1.6-0.6,1.3-6.5-0.7-13.1c-0.3-0.9-0.6-1.8-0.9-2.6c0.1-0.1,0.2-0.2,0.3-0.3c1.6,4.7,4,8,5.3,7.4
		C75.5,394.9,75.3,390.6,73.6,385.9z"/>
	<polygon class="st2" points="200.9,661.4 243.4,661.4 257.5,523.6 243.4,406.9 179.7,406.9 204.5,523.6 	"/>
	<polygon class="st2" points="147.9,661.4 105.5,661.4 91.3,523.6 105.5,406.9 169.1,406.9 144.4,523.6 	"/>
	<path class="st2" d="M340.9,253.7l-95.2-64.5c-2-1.2-4.2-1.6-6.3-1.3c-0.5-0.1-1-0.1-1.5-0.1H116.5c-0.4,0-0.9,0-1.3,0.1
		c-2-0.2-4.1,0.3-5.9,1.4l-95.4,64.5c-2.5,1.5-1.7,2.2-1,5l32.7,121.5l23.8-4.7L52.9,268.7c-0.3-2.7-0.4-3.8,2-5l50.6-27.6v174.3
		h137.3c0.3,0,0.6-0.3,0.6-0.6l4.5-174.7l54,29.5c2.4,1.2,1.6,2.7,1.3,5.4l-17.6,105.4l23.8,4.7l33.5-121.5
		C343.7,255.9,343.4,255.1,340.9,253.7z"/>
	<path d="M198.1,672.7c0-19.5,11.1-35.4,24.7-35.4c13.7,0,24.7,15.8,24.7,35.4"/>
	<path class="st2" d="M247.2,675.7h-48.8c-0.9,0-1.6-0.7-1.6-1.6v-6.4h51.8c0.1,0,0.2,0.1,0.2,0.2v6.2
		C248.9,674.9,248.1,675.7,247.2,675.7z"/>
	<path d="M100.1,672.7c0-19.5,11.1-35.4,24.7-35.4s24.7,15.8,24.7,35.4"/>
	<path class="st2" d="M149.2,675.7h-48.8c-0.9,0-1.6-0.7-1.6-1.6v-6.4h51.8c0.1,0,0.2,0.1,0.2,0.2v6.2
		C150.9,674.9,150.1,675.7,149.2,675.7z"/>
	<polygon class="st2" points="190.2,210.7 166.6,210.7 163.3,160.8 192.2,160.8 	"/>
	<g>
		<path class="st2" d="M136.1,101.9l0,3.1c0,5.3-4.2,9.6-9.5,9.6l-7.8,0c-4.8,0-8.8-3.9-8.8-8.7l0-4.7c0-4.8,3.9-8.8,8.7-8.8l7.8,0
			C131.8,92.4,136.1,96.6,136.1,101.9z"/>
		<path class="st2" d="M245.5,101.4l0,3.1c0,5.3,1.1,9.6-9.5,9.6l-7.8,0c-4.8,0-8.8-3.9-8.8-8.7l0-4.7c0-4.8,3.9-8.8,8.7-8.8l7.8,0
			C241.2,91.9,245.5,96.2,245.5,101.4z"/>
	</g>
	<g>
		<circle class="st15" cx="35.4" cy="263.2" r="6.5"/>
		<circle class="st27" cx="177.4" cy="341.2" r="6.5"/>
		<circle class="st21" cx="60.4" cy="388.2" r="6.5"/>
		<circle class="st15" cx="118.4" cy="528.2" r="6.5"/>
		<circle class="st17" cx="125.4" cy="655.2" r="6.5"/>
		<circle class="st15" cx="234.4" cy="528.2" r="6.5"/>
		<circle class="st17" cx="222.4" cy="655.2" r="6.5"/>
		<circle class="st15" cx="322.4" cy="263.2" r="6.5"/>
		<circle class="st21" cx="296.4" cy="387.2" r="6.5"/>
		<path class="st13" d="M219,218.7c-3.9,0-7.4,1.8-9.8,4.6c-2.3-2.8-5.9-4.6-9.8-4.6c-7.1,0-13.8,5.9-12.8,12.8
			c1,7.5,22.5,20.2,22.5,20.2c1.4-0.8,21.5-11.8,22.7-20.2C232.7,224.6,226,218.7,219,218.7z"/>
		<circle class="st21" cx="209.4" cy="235.2" r="6.5"/>
		<circle class="st15" cx="177.4" cy="72.2" r="6.5"/>
		<g>
			<circle class="st27" cx="235.7" cy="103.2" r="6.5"/>
			<circle class="st27" cx="119.7" cy="103.2" r="6.5"/>
		</g>
		<g>
			<circle class="st21" cx="159.2" cy="95.2" r="6.5"/>
			<circle class="st21" cx="194.2" cy="95.2" r="6.5"/>
		</g>
		<circle class="st15" cx="177.7" cy="123.2" r="6.5"/>
		<g>
			<path d="M197.2,145.3c0,10.8-8.7,19.5-19.5,19.5c-10.8,0-19.5-8.7-19.5-19.5"/>
			<circle class="st27" cx="177.7" cy="155" r="6.5"/>
		</g>
	</g>
	<path d="M237.8,96.7c3.1,2.2,13.1,1.9,13-0.6c-1.7-60.1-54-88.4-90-56.3c0,0,23.7,22.4,47.3,34.3C224.7,82.4,234.8,94.5,237.8,96.7
		z"/>
</g>
</svg>
