<svg id="Layer_1" data-name="Layer 1" xmlns="http://www.w3.org/2000/svg" xmlns:xlink="http://www.w3.org/1999/xlink" viewBox="0 0 3776.42 1872"><defs><style>.cls-1,.cls-2,.cls-36,.cls-39{fill:none;}.cls-2,.cls-66{stroke:#000;}.cls-18,.cls-19,.cls-2,.cls-20,.cls-21,.cls-22,.cls-23,.cls-24,.cls-25,.cls-26,.cls-27,.cls-28,.cls-29,.cls-30,.cls-31,.cls-35,.cls-36,.cls-39,.cls-66{stroke-miterlimit:10;}.cls-24,.cls-3{fill:#48dbfb;}.cls-4{fill:#333;}.cls-23,.cls-5{fill:#0abde3;}.cls-18,.cls-6{fill:#f368e0;}.cls-25,.cls-7{fill:#576574;}.cls-26,.cls-8{fill:#2e86de;}.cls-27,.cls-9{fill:#ff9ff3;}.cls-10,.cls-31{fill:#8395a7;}.cls-11,.cls-20{fill:#1dd1a1;}.cls-12,.cls-22{fill:#feca57;}.cls-13,.cls-30,.cls-66{fill:#ff9f43;}.cls-14,.cls-21{fill:#222f3e;}.cls-15,.cls-28{fill:#ee5253;}.cls-16,.cls-29{fill:#ff6b6b;}.cls-17,.cls-19{fill:#5f27cd;}.cls-18,.cls-19,.cls-20,.cls-21,.cls-22,.cls-23,.cls-24,.cls-25,.cls-26,.cls-27,.cls-28,.cls-29,.cls-30,.cls-31,.cls-35{stroke:#fff;}.cls-18,.cls-19,.cls-20,.cls-21,.cls-22,.cls-23,.cls-24,.cls-25,.cls-26,.cls-27,.cls-28,.cls-29,.cls-30,.cls-31,.cls-36{stroke-width:2px;}.cls-32{font-size:11.46px;}.cls-32,.cls-37,.cls-41,.cls-44,.cls-48,.cls-50,.cls-65,.cls-68{font-family:Comfortaa-Bold, Comfortaa;font-weight:700;}.cls-33{letter-spacing:-0.02em;}.cls-34,.cls-35,.cls-48,.cls-50{fill:#fff;}.cls-36,.cls-39{stroke:#1a1a1a;}.cls-37{font-size:24px;}.cls-38{letter-spacing:-0.02em;}.cls-40{font-size:16px;font-family:OpenSans-Regular, Open Sans;}.cls-41{font-size:14.15px;}.cls-42{letter-spacing:-0.04em;}.cls-43{letter-spacing:-0.02em;}.cls-44,.cls-63{font-size:11.97px;}.cls-45{letter-spacing:-0.03em;}.cls-46{letter-spacing:-0.02em;}.cls-47{clip-path:url(#clip-path);}.cls-48{font-size:7.87px;}.cls-49{letter-spacing:-0.03em;}.cls-50{font-size:9.65px;}.cls-51{letter-spacing:-0.03em;}.cls-52{letter-spacing:0em;}.cls-53{clip-path:url(#clip-path-3);}.cls-54{letter-spacing:-0.02em;}.cls-55{letter-spacing:0em;}.cls-56{letter-spacing:-0.04em;}.cls-57{letter-spacing:0em;}.cls-58{font-size:9.8px;}.cls-58,.cls-63{font-family:Comfortaa-Regular, Comfortaa;}.cls-59{letter-spacing:-0.03em;}.cls-60{letter-spacing:0em;}.cls-61{letter-spacing:-0.02em;}.cls-62{letter-spacing:-0.04em;}.cls-64{letter-spacing:-0.03em;}.cls-65{font-size:12px;}.cls-67{letter-spacing:-0.04em;}.cls-68{font-size:28.58px;}.cls-69{letter-spacing:-0.03em;}.cls-70{letter-spacing:-0.04em;}.cls-71{letter-spacing:0em;}.cls-72{letter-spacing:-0.02em;}.cls-73{letter-spacing:0em;}.cls-74{letter-spacing:-0.02em;}</style><clipPath id="clip-path" transform="translate(63.14 582)"><rect class="cls-1" x="2871.41" y="-50.76" width="66.95" height="80.55"/></clipPath><clipPath id="clip-path-3" transform="translate(63.14 582)"><rect class="cls-2" x="2951.42" y="-50.76" width="66.95" height="80.55" rx="4.08" ry="4.08"/></clipPath></defs><title>Woman</title><rect class="cls-3" x="638" y="582" width="1280" height="91"/><rect class="cls-4" x="692" width="251" height="132"/><rect class="cls-5" y="139.4" width="246.28" height="133.4"/><rect class="cls-6" y="6" width="246.28" height="133.4"/><rect class="cls-7" x="246.28" y="6" width="246.28" height="133.4"/><rect class="cls-8" x="492.55" y="272.8" width="246.28" height="133.4"/><rect class="cls-3" x="246.28" y="406.2" width="246.28" height="133.4"/><rect class="cls-9" x="492.55" y="406.2" width="246.28" height="133.4"/><rect class="cls-10" x="246.28" y="539.6" width="246.28" height="133.4"/><rect class="cls-11" x="246.28" y="139.4" width="246.28" height="133.4"/><rect class="cls-12" x="246.28" y="272.8" width="246.28" height="133.4"/><rect class="cls-13" y="272.8" width="246.28" height="133.4"/><rect class="cls-14" y="406.2" width="246.28" height="133.4"/><rect class="cls-15" y="539.6" width="246.28" height="133.4"/><rect class="cls-16" x="492.55" y="139.4" width="246.28" height="133.4"/><rect class="cls-17" x="492.55" y="6.4" width="246.28" height="133.4"/><polygon class="cls-8" points="567 610 567 610 567 610 567 610 567 610"/><circle class="cls-18" cx="741.5" cy="39.5" r="6.5"/><circle class="cls-19" cx="805.5" cy="39.5" r="6.5"/><circle class="cls-20" cx="873.5" cy="39.5" r="6.5"/><circle class="cls-21" cx="741.5" cy="71.5" r="6.5"/><circle class="cls-22" cx="805.5" cy="71.5" r="6.5"/><circle class="cls-23" cx="873.5" cy="71.5" r="6.5"/><circle class="cls-24" cx="741.5" cy="103.5" r="6.5"/><circle class="cls-25" cx="770.5" cy="39.5" r="6.5"/><circle class="cls-26" cx="770.5" cy="71.5" r="6.5"/><circle class="cls-27" cx="770.5" cy="103.5" r="6.5"/><circle class="cls-28" cx="805.5" cy="103.5" r="6.5"/><circle class="cls-29" cx="839.5" cy="39.5" r="6.5"/><circle class="cls-30" cx="839.5" cy="71.5" r="6.5"/><circle class="cls-31" cx="839.5" cy="103.5" r="6.5"/><circle class="cls-13" cx="772.72" cy="633.26" r="9.87"/><circle class="cls-18" cx="696.69" cy="633.26" r="9.87"/><path d="M640,40.6a11.83,11.83,0,0,1,4.48,4.51,12.69,12.69,0,0,1,1.63,6.37,13.53,13.53,0,0,1-1.51,6.38,11.36,11.36,0,0,1-4.15,4.48,11.26,11.26,0,0,1-14.58-2.47V72A2.34,2.34,0,0,1,622,73.7a2.21,2.21,0,0,1-.66-1.67V51.48A12.5,12.5,0,0,1,623,45.11a12.07,12.07,0,0,1,4.46-4.51A12.21,12.21,0,0,1,633.71,39,12.46,12.46,0,0,1,640,40.6Zm-2.26,18.21a8.06,8.06,0,0,0,2.89-3,8.82,8.82,0,0,0,1.06-4.31,8.92,8.92,0,0,0-1.06-4.32,7.93,7.93,0,0,0-2.89-3,7.83,7.83,0,0,0-11,3,8.9,8.9,0,0,0-1,4.32,8.81,8.81,0,0,0,1,4.31,7.84,7.84,0,0,0,2.86,3,8.1,8.1,0,0,0,8.15,0Z" transform="translate(63.14 582)"/><path d="M657.84,30.05a2.86,2.86,0,0,1,.88,2.1,3,3,0,0,1-6,0,3,3,0,0,1,5.07-2.1Zm-3.74,9.72A2.29,2.29,0,0,1,658,41.43V61.49a2.26,2.26,0,0,1-.63,1.64,2.31,2.31,0,0,1-4-1.64V41.43A2.18,2.18,0,0,1,654.1,39.77Z" transform="translate(63.14 582)"/><path d="M684.45,40.26a9.57,9.57,0,0,1,3.88,3.94,13,13,0,0,1,1.39,6.25V61.53a2.22,2.22,0,0,1-2.29,2.3,2.22,2.22,0,0,1-2.3-2.3V50.45A6.65,6.65,0,0,0,678,43.06a7.73,7.73,0,0,0-3.45.76,6.17,6.17,0,0,0-2.43,2.07,5.13,5.13,0,0,0-.88,2.93V61.53a2.3,2.3,0,0,1-.63,1.65,2.31,2.31,0,0,1-4-1.65V41.43a2.18,2.18,0,0,1,.65-1.66,2.29,2.29,0,0,1,3.94,1.66v.5a9.88,9.88,0,0,1,3.43-2.23,11.24,11.24,0,0,1,4.23-.79A11.47,11.47,0,0,1,684.45,40.26Z" transform="translate(63.14 582)"/><path d="M716.07,40.6a11.9,11.9,0,0,1,4.48,4.51,12.68,12.68,0,0,1,1.62,6.37,13.41,13.41,0,0,1-1.51,6.38,11.34,11.34,0,0,1-4.14,4.48,11.26,11.26,0,0,1-14.58-2.47V72a2.17,2.17,0,0,1-2.3,2.3A2.3,2.3,0,0,1,698,73.7a2.24,2.24,0,0,1-.65-1.67V51.48A12.5,12.5,0,0,1,699,45.11,12.16,12.16,0,0,1,709.73,39,12.47,12.47,0,0,1,716.07,40.6Zm-2.26,18.21a8.06,8.06,0,0,0,2.89-3,8.82,8.82,0,0,0,1.06-4.31,8.92,8.92,0,0,0-1.06-4.32,7.93,7.93,0,0,0-2.89-3,7.85,7.85,0,0,0-11,3,9,9,0,0,0-1,4.32,8.91,8.91,0,0,0,1,4.31,7.86,7.86,0,0,0,2.87,3,8.1,8.1,0,0,0,8.15,0Z" transform="translate(63.14 582)"/><path d="M746.58,40.55A11.54,11.54,0,0,1,751,45a14,14,0,0,1,0,12.94,11.45,11.45,0,0,1-4.4,4.44A12.85,12.85,0,0,1,740.2,64a13,13,0,0,1-6.45-1.6,11.34,11.34,0,0,1-4.41-4.44,14,14,0,0,1,0-12.94,11.34,11.34,0,0,1,4.41-4.44A13,13,0,0,1,740.2,39,12.78,12.78,0,0,1,746.58,40.55Zm-10.5,3.54a7.59,7.59,0,0,0-2.87,3,9.13,9.13,0,0,0-1,4.37,9,9,0,0,0,1,4.35,7.61,7.61,0,0,0,2.87,3,8.4,8.4,0,0,0,8.24,0,7.4,7.4,0,0,0,2.84-3,9.07,9.07,0,0,0,1-4.35,9.24,9.24,0,0,0-1-4.37,7.39,7.39,0,0,0-2.84-3,8.4,8.4,0,0,0-8.24,0Z" transform="translate(63.14 582)"/><path d="M764.29,30.05a2.9,2.9,0,0,1,.88,2.1,3,3,0,0,1-3,3,3,3,0,0,1-3-3,3,3,0,0,1,3-3A2.9,2.9,0,0,1,764.29,30.05Zm-3.74,9.72a2.29,2.29,0,0,1,3.94,1.66V61.49a2.26,2.26,0,0,1-.63,1.64,2.32,2.32,0,0,1-4-1.64V41.43A2.18,2.18,0,0,1,760.55,39.77Z" transform="translate(63.14 582)"/><path d="M790.9,40.26a9.63,9.63,0,0,1,3.88,3.94,13,13,0,0,1,1.39,6.25V61.53a2.22,2.22,0,0,1-2.3,2.3,2.22,2.22,0,0,1-2.29-2.3V50.45a6.65,6.65,0,0,0-7.17-7.39,7.73,7.73,0,0,0-3.45.76,6.1,6.1,0,0,0-2.43,2.07,5.13,5.13,0,0,0-.88,2.93V61.53a2.3,2.3,0,0,1-.63,1.65,2.32,2.32,0,0,1-4-1.65V41.43a2.18,2.18,0,0,1,.66-1.66,2.29,2.29,0,0,1,3.94,1.66v.5a9.88,9.88,0,0,1,3.43-2.23,11.24,11.24,0,0,1,4.23-.79A11.5,11.5,0,0,1,790.9,40.26Z" transform="translate(63.14 582)"/><path d="M815.66,59.91a2.32,2.32,0,0,1,.57,1.62,2.05,2.05,0,0,1-.75,1.63,2.84,2.84,0,0,1-1.91.63h-.81a7.48,7.48,0,0,1-4-1.15,8,8,0,0,1-2.86-3.14,9.46,9.46,0,0,1-1-4.46V43.91h-2.08a2.17,2.17,0,0,1-1.53-.54,1.77,1.77,0,0,1-.59-1.35,1.87,1.87,0,0,1,.59-1.44,2.17,2.17,0,0,1,1.53-.54h2.08V33.55a2.22,2.22,0,0,1,.63-1.63,2.4,2.4,0,0,1,3.24,0,2.22,2.22,0,0,1,.63,1.63V40h3.83a2.21,2.21,0,0,1,1.54.54,1.86,1.86,0,0,1,.58,1.44,1.76,1.76,0,0,1-.58,1.35,2.21,2.21,0,0,1-1.54.54h-3.83V55a4.61,4.61,0,0,0,1,3,3,3,0,0,0,2.44,1.22h1.53A1.76,1.76,0,0,1,815.66,59.91Z" transform="translate(63.14 582)"/><text class="cls-32" transform="translate(886.77 629.4)">my <tspan x="0" y="13.75">h</tspan><tspan class="cls-33" x="7.82" y="13.75">e</tspan><tspan x="14.71" y="13.75">alth</tspan></text><path class="cls-4" d="M2281.49,1041.62c1.51-3.07,2.32-7.89,3.4-8.71a11.67,11.67,0,0,1,7.38-5.89c3.19-.92,6.48.24,9.06,2.81a.46.46,0,0,0,.07-.07c.59-.25,1.51,1.32,2.45,3.45a17.92,17.92,0,0,1,1.06,2.3h0a1.62,1.62,0,0,0,0,.2c.18.52.35,1,.5,1.6.28.76.54,1.51.77,2.18,1.37,4,1.58,7.6.46,8.09s-3.1-2.29-4.48-6.21a3.36,3.36,0,0,1-.29.24c.26.7.5,1.42.73,2.18,1.69,5.56,1.95,10.49.59,11s-3.84-3.57-5.53-9.14c-.15-.5-.29-1-.42-1.48l-.15,0c.2.72.4,1.48.57,2.25,1.43,6.23,1.46,11.6.07,12s-3.68-4.33-5.12-10.55c-.19-.85-.36-1.68-.5-2.48,0,.6.05,1.21.05,1.84,0,5.68-1.15,10.33-2.59,10.36s-2.61-4.53-2.62-10.22c0-1.15,0-2.26.13-3.29a4.05,4.05,0,0,1-.35-.21,5.35,5.35,0,0,1-.27.64c-1.75,3.59-4.31,5.84-5.7,5S2279.73,1045.2,2281.49,1041.62Z" transform="translate(63.14 582)"/><path class="cls-4" d="M2482.19,1041.16c.23-.67.49-1.41.77-2.18.15-.55.32-1.08.5-1.6a1.38,1.38,0,0,0,0-.2h0a17.92,17.92,0,0,1,1.06-2.3c.94-2.12,1.86-3.7,2.45-3.44l.07.06c2.58-2.56,5.87-3.73,9.06-2.81a11.69,11.69,0,0,1,7.38,5.9c1.08.81,1.89,5.63,3.4,8.7,1.76,3.59,2.05,7.15.66,8s-4-1.44-5.7-5a6,6,0,0,1-.27-.63l-.35.2c.09,1,.13,2.14.13,3.29,0,5.69-1.18,10.27-2.62,10.23s-2.6-4.68-2.59-10.37c0-.57,0-1.13,0-1.68-.1.53-.21,1.08-.34,1.63-1.34,5.85-3.57,10.27-5,9.88s-1.44-5.46-.09-11.31c.12-.54.26-1.07.4-1.58l-.13,0q-.2.72-.42,1.47c-1.69,5.57-4.16,9.66-5.53,9.15s-1.1-5.45.59-11c.23-.76.47-1.48.73-2.17l-.29-.24c-1.37,3.92-3.37,6.69-4.48,6.2S2480.82,1045.14,2482.19,1041.16Z" transform="translate(63.14 582)"/><path class="cls-34" d="M2361.86,193.26c0,8.21-8.46,14.87-18.89,14.87s-18.9-6.66-18.9-14.87" transform="translate(63.14 582)"/><path class="cls-4" d="M2456.39,400.59c-1.51-3.07-2.32-7.9-3.4-8.71a11.64,11.64,0,0,0-7.39-5.89c-3.18-.92-6.47.24-9,2.81a.46.46,0,0,1-.07-.07c-.59-.25-1.51,1.32-2.45,3.45a17.32,17.32,0,0,0-1.06,2.3h0l0,.2c-.19.52-.35,1.05-.5,1.6-.28.76-.54,1.51-.77,2.18-1.38,4-1.58,7.6-.46,8.09s3.1-2.29,4.47-6.21l.3.24c-.26.7-.5,1.42-.73,2.18-1.69,5.56-1.95,10.49-.59,11s3.84-3.57,5.53-9.14c.15-.5.29-1,.41-1.48l.16.05c-.21.72-.4,1.48-.57,2.25-1.44,6.23-1.46,11.6-.07,12s3.68-4.33,5.11-10.55c.2-.85.37-1.68.51-2.48,0,.6,0,1.21,0,1.84,0,5.68,1.15,10.33,2.59,10.36s2.61-4.53,2.62-10.22c0-1.15-.05-2.26-.13-3.29a4.05,4.05,0,0,0,.35-.21c.08.23.17.44.26.64,1.76,3.59,4.32,5.84,5.71,5S2458.15,404.17,2456.39,400.59Z" transform="translate(63.14 582)"/><path class="cls-4" d="M2255.69,400.13c-.23-.67-.5-1.41-.77-2.18-.15-.55-.32-1.08-.51-1.6,0-.07,0-.14,0-.2h0a19.39,19.39,0,0,0-1.06-2.3c-.95-2.12-1.87-3.7-2.45-3.44,0,0-.05,0-.07.06-2.58-2.56-5.88-3.73-9.06-2.81a11.66,11.66,0,0,0-7.38,5.9c-1.08.81-1.9,5.63-3.4,8.7-1.76,3.59-2,7.15-.66,8s3.95-1.44,5.7-5a4.39,4.39,0,0,0,.26-.63l.36.2c-.09,1-.14,2.14-.13,3.29,0,5.69,1.18,10.27,2.62,10.23s2.6-4.68,2.59-10.37c0-.57,0-1.13,0-1.68.1.53.21,1.08.34,1.63,1.34,5.85,3.56,10.27,5,9.88s1.44-5.46.09-11.31c-.12-.54-.26-1.07-.4-1.58l.13,0q.2.72.42,1.47c1.69,5.57,4.16,9.66,5.52,9.15s1.11-5.45-.58-11c-.23-.76-.48-1.48-.73-2.17l.29-.24c1.37,3.92,3.37,6.69,4.48,6.2S2257.06,404.11,2255.69,400.13Z" transform="translate(63.14 582)"/><polygon class="cls-4" points="2425.93 1213.96 2461.63 1213.96 2473.52 1097.97 2461.63 999.82 2408.09 999.82 2428.91 1097.97 2425.93 1213.96"/><polygon class="cls-4" points="2381.32 1213.96 2345.63 1213.96 2333.73 1097.97 2345.63 999.82 2399.16 999.82 2378.34 1097.97 2381.32 1213.96"/><path class="cls-4" d="M2480.55,288.92l-80.05-54.27a8.29,8.29,0,0,0-5.29-1.14,9.1,9.1,0,0,0-1.29-.1H2291.76a9.28,9.28,0,0,0-1.06.07,8.33,8.33,0,0,0-5,1.17l-80.24,54.27c-2.07,1.24-1.47,1.87-.84,4.2l27.54,102.22,20-3.94-13.87-89.87c-.27-2.28-.38-3.19,1.68-4.2l42.59-23.2V420.79h115.51a.5.5,0,0,0,.5-.48l3.8-146.94,45.39,24.8c2.06,1,1.36,2.27,1.09,4.55l-14.77,88.68,20,3.94,28.18-102.22C2482.86,290.79,2482.62,290.16,2480.55,288.92Z" transform="translate(63.14 582)"/><path d="M2360.37,641.4c0-16.43,9.32-29.74,20.82-29.74S2402,625,2402,641.4" transform="translate(63.14 582)"/><path class="cls-4" d="M2422.5,1219.19h43.6a.14.14,0,0,1,.14.14v5.22a1.37,1.37,0,0,1-1.37,1.37h-41a1.37,1.37,0,0,1-1.37-1.37v-5.36A0,0,0,0,1,2422.5,1219.19Z"/><circle class="cls-18" cx="2286.64" cy="878.91" r="5.47"/><circle class="cls-30" cx="2406.1" cy="944.52" r="5.47"/><circle class="cls-24" cx="2307.67" cy="984.06" r="5.47"/><path d="M2277.92,641.4c0-16.43,9.33-29.74,20.82-29.74s20.82,13.31,20.82,29.74" transform="translate(63.14 582)"/><path class="cls-4" d="M2340.06,1219.19h43.6a.14.14,0,0,1,.14.14v5.22a1.37,1.37,0,0,1-1.37,1.37h-41a1.37,1.37,0,0,1-1.37-1.37v-5.36A0,0,0,0,1,2340.06,1219.19Z"/><circle class="cls-18" cx="2356.46" cy="1101.84" r="5.47"/><circle class="cls-20" cx="2362.35" cy="1208.68" r="5.47"/><circle class="cls-18" cx="2454.05" cy="1101.84" r="5.47"/><circle class="cls-20" cx="2443.95" cy="1208.68" r="5.47"/><circle class="cls-18" cx="2528.08" cy="878.91" r="5.47"/><circle class="cls-24" cx="2506.2" cy="983.22" r="5.47"/><path class="cls-16" d="M2378,259.49a10.76,10.76,0,0,1-16.48,0c-5.95,0-11.57,5-10.78,10.77.88,6.34,19,17,19,17,1.16-.68,18.11-9.94,19.08-17C2389.53,264.48,2383.91,259.49,2378,259.49Z" transform="translate(63.14 582)"/><circle class="cls-24" cx="2433.02" cy="855.35" r="5.47"/><circle class="cls-24" cx="2406.1" cy="718.23" r="5.47"/><polygon class="cls-4" points="2416.91 834.75 2397.03 834.75 2394.27 792.77 2418.57 792.77 2416.91 834.75"/><path class="cls-4" d="M2332.25,113h22.11a36.86,36.86,0,0,1,36.86,36.86v30A40.19,40.19,0,0,1,2351,220h-15.45a40.19,40.19,0,0,1-40.19-40.19v-30A36.86,36.86,0,0,1,2332.25,113Z" transform="translate(62.44 592.21) rotate(-0.25)"/><path class="cls-4" d="M2387.33,151.19h3.92a7.39,7.39,0,0,1,7.39,7.39v6.59a8.05,8.05,0,0,1-8.05,8.05H2388a8.05,8.05,0,0,1-8.05-8.05v-6.59a7.39,7.39,0,0,1,7.39-7.39Z" transform="translate(2300.63 3134.18) rotate(-90.25)"/><path class="cls-4" d="M2295.31,151.59h3.92a7.39,7.39,0,0,1,7.39,7.39v6.59a8.05,8.05,0,0,1-8.05,8.05H2296a8.05,8.05,0,0,1-8.05-8.05V159a7.39,7.39,0,0,1,7.39-7.39Z" transform="matrix(0, -1, 1, 0, 2207.81, 3042.57)"/><circle class="cls-30" cx="2455.21" cy="744.31" r="5.47"/><circle class="cls-30" cx="2357.63" cy="744.31" r="5.47"/><circle class="cls-24" cx="2390.85" cy="737.58" r="5.47"/><circle class="cls-24" cx="2420.3" cy="737.58" r="5.47"/><circle class="cls-18" cx="2406.42" cy="761.13" r="5.47"/><path d="M2359.69,197.75a16.41,16.41,0,0,1-32.81,0" transform="translate(63.14 582)"/><circle class="cls-30" cx="2406.42" cy="787.95" r="5.47"/><path d="M2376.93,133.78s-29,9.16-47.59,3c-8.92-3-23.79,5.95-32.72,3s-8.92-8.05-8.92-14.31V110s19.33,6,33.46,0,55.77,0,55.77,0Z" transform="translate(63.14 582)"/><path d="M2392.25,148.33c-7.69,2.08-15.88-4.64-17.18-14.21l-.06-.45a74.18,74.18,0,0,0-4.17-17.53C2369.5,112.77,2380,103,2380,103s2.15,14.64,5.61,20.76,6.64,24.57,6.64,24.57Z" transform="translate(63.14 582)"/><rect class="cls-35" x="1406.31" y="426.5" width="254" height="107"/><path class="cls-13" d="M1411.11,398h250a2,2,0,0,1,2,2v27.9a0,0,0,0,1,0,0h-254a0,0,0,0,1,0,0V400A2,2,0,0,1,1411.11,398Z"/><rect class="cls-36" x="1409.11" y="398" width="254" height="136.5" rx="2" ry="2"/><text class="cls-37" transform="translate(1423.19 421.16)"><tspan class="cls-38">e</tspan><tspan x="14.42" y="0">ars</tspan></text><rect class="cls-39" x="1423.59" y="441.87" width="16" height="16" rx="2" ry="2"/><text class="cls-40" transform="translate(1446.42 454.19)">problem related to hearing</text><rect class="cls-39" x="1423.59" y="462.87" width="16" height="16" rx="2" ry="2"/><text class="cls-40" transform="translate(1446.42 475.19)">congestion</text><rect class="cls-39" x="1423.59" y="483.87" width="16" height="16" rx="2" ry="2"/><text class="cls-40" transform="translate(1446.42 496.19)">problem related to hearing</text><rect class="cls-39" x="1423.59" y="504.87" width="16" height="16" rx="2" ry="2"/><text class="cls-40" transform="translate(1446.42 517.19)">other ______________________</text><circle class="cls-18" cx="2406.1" cy="711.5" r="5.47"/><path class="cls-34" d="M2376,834.29c0,8.21,8.46,14.87,18.89,14.87s18.9-6.66,18.9-14.87" transform="translate(63.14 582)"/><path class="cls-4" d="M2257.33,930l80.05-54.27a8.35,8.35,0,0,1,5.29-1.14,9.1,9.1,0,0,1,1.29-.1h102.16a9.28,9.28,0,0,1,1.06.07,8.33,8.33,0,0,1,5,1.17L2532.42,930c2.07,1.24,1.47,1.87.84,4.2l-27.54,102.22-20-3.94,13.88-89.87c.27-2.28.38-3.19-1.68-4.2l-42.59-23.2v146.66H2339.83a.5.5,0,0,1-.5-.48l-3.8-146.94-45.39,24.8c-2.06,1-1.36,2.27-1.09,4.55l14.77,88.68-20,3.94-28.18-102.22C2255,931.82,2255.26,931.19,2257.33,930Z" transform="translate(63.14 582)"/><path d="M2377.51,1287.48c0-16.43-9.32-29.75-20.82-29.75s-20.82,13.32-20.82,29.75" transform="translate(63.14 582)"/><path class="cls-4" d="M2336.14,1283.27h41a1.37,1.37,0,0,1,1.37,1.37v5.22a.14.14,0,0,1-.14.14h-43.6a0,0,0,0,1,0,0v-5.36A1.37,1.37,0,0,1,2336.14,1283.27Z" transform="translate(4776.43 3155.27) rotate(-180)"/><path d="M2460,1287.48c0-16.43-9.32-29.75-20.82-29.75s-20.82,13.32-20.82,29.75" transform="translate(63.14 582)"/><polygon class="cls-4" points="2438.22 1855 2402.53 1855 2390.63 1739 2402.53 1640.85 2456.07 1640.85 2435.25 1739 2438.22 1855"/><polygon class="cls-4" points="2482.84 1855 2518.53 1855 2530.43 1739 2518.53 1640.85 2464.99 1640.85 2485.81 1739 2482.84 1855"/><path class="cls-4" d="M2418.58,1283.27h41a1.37,1.37,0,0,1,1.37,1.37v5.22a.14.14,0,0,1-.14.14h-43.6a0,0,0,0,1,0,0v-5.36a1.37,1.37,0,0,1,1.37-1.37Z" transform="translate(4941.31 3155.27) rotate(-180)"/><circle class="cls-24" cx="2458.06" cy="1359.26" r="5.47"/><polygon class="cls-4" points="2447.24 1475.78 2467.13 1475.78 2469.89 1433.8 2445.59 1433.8 2447.24 1475.78"/><path class="cls-4" d="M2386.85,754h15.45a40.19,40.19,0,0,1,40.19,40.19v30A36.86,36.86,0,0,1,2405.63,861h-22.11a36.86,36.86,0,0,1-36.86-36.86v-30A40.19,40.19,0,0,1,2386.85,754Z" transform="translate(4848.75 2207.42) rotate(-179.75)"/><path class="cls-4" d="M2347.29,792.22h2.59a8.05,8.05,0,0,1,8.05,8.05v6.59a7.39,7.39,0,0,1-7.39,7.39h-3.92a7.39,7.39,0,0,1-7.39-7.39v-6.59a8.05,8.05,0,0,1,8.05-8.05Z" transform="translate(1598.27 3730.3) rotate(-89.75)"/><path class="cls-4" d="M2439.31,792.62h2.59a8.05,8.05,0,0,1,8.05,8.05v6.59a7.39,7.39,0,0,1-7.39,7.39h-3.92a7.39,7.39,0,0,1-7.39-7.39v-6.59a8.05,8.05,0,0,1,8.05-8.05Z" transform="translate(1689.48 3822.72) rotate(-89.75)"/><path d="M2361,774.81s29,9.16,47.59,3c8.92-3,23.79,6,32.71,3s8.93-8,8.93-14.31V751s-19.34,6-33.46,0-55.77,0-55.77,0Z" transform="translate(63.14 582)"/><path d="M2345.63,789.36c7.69,2.08,15.88-4.64,17.18-14.21l.06-.45a73.67,73.67,0,0,1,4.17-17.53c1.34-3.37-9.16-13.14-9.16-13.14s-2.15,14.64-5.61,20.76-6.64,24.57-6.64,24.57Z" transform="translate(63.14 582)"/><path d="M858.86,417s-13,4-34-6-81,8-97,5c-14.79-2.77-33-3-33-3,4-6,11-20.79,8.5-47.9s6.43-33,11.5-55.1c17.8-77.54,107.64-62.08,129-6,6.39,16.76,13.36,27.59,12.18,57.8A312.73,312.73,0,0,0,858.86,417Z" transform="translate(63.14 582)"/><path class="cls-4" d="M836.86,325.38c0,33.9-25.52,81.62-57,81.62s-57-47.72-57-81.62,25.52-61.38,57-61.38S836.86,291.48,836.86,325.38Z" transform="translate(63.14 582)"/><path d="M797.86,265c-51-26-80.73,37.48-76,63,0,0,12.94-19.1,26-24C779.86,292,797.86,265,797.86,265Z" transform="translate(63.14 582)"/><path class="cls-4" d="M914.2,620.75c-1.79-3.65-2.76-9.39-4-10.35a13.8,13.8,0,0,0-8.78-7c-3.78-1.1-7.7.28-10.77,3.33,0,0-.05-.06-.08-.07-.69-.31-1.79,1.56-2.91,4.09a22.73,22.73,0,0,0-1.26,2.73h0c0,.08,0,.16,0,.24-.22.61-.42,1.25-.59,1.9-.34.91-.65,1.79-.93,2.6-1.63,4.72-1.87,9-.54,9.61s3.69-2.72,5.32-7.38l.35.29q-.45,1.23-.87,2.58c-2,6.62-2.31,12.47-.69,13.09s4.56-4.26,6.56-10.87c.18-.6.35-1.18.5-1.76l.18.06c-.24.86-.47,1.75-.68,2.67-1.7,7.4-1.73,13.79-.08,14.26s4.38-5.14,6.08-12.54c.23-1,.43-2,.6-3,0,.72,0,1.44-.06,2.19,0,6.76,1.37,12.28,3.08,12.32s3.11-5.39,3.12-12.15c0-1.37-.06-2.68-.16-3.91.14-.08.29-.16.42-.25.1.27.2.52.31.76,2.09,4.26,5.13,6.94,6.78,6S916.29,625,914.2,620.75Z" transform="translate(63.14 582)"/><path class="cls-4" d="M675.63,620.21c-.28-.81-.59-1.69-.92-2.6-.18-.65-.38-1.29-.6-1.9l0-.24H674a21.28,21.28,0,0,0-1.26-2.73c-1.12-2.53-2.21-4.4-2.91-4.09,0,0-.05.05-.08.07-3.07-3.05-7-4.43-10.77-3.33a13.82,13.82,0,0,0-8.78,7c-1.28,1-2.25,6.69-4,10.35-2.09,4.26-2.44,8.49-.78,9.46s4.69-1.72,6.78-6a5.75,5.75,0,0,0,.31-.76c.13.09.28.17.42.25-.1,1.23-.16,2.54-.16,3.91,0,6.76,1.41,12.2,3.12,12.15s3.09-5.56,3.08-12.32c0-.68,0-1.35-.05-2,.12.64.25,1.28.4,1.94,1.6,7,4.24,12.21,5.9,11.75s1.71-6.49.11-13.45c-.15-.64-.31-1.26-.47-1.88l.15-.05c.16.58.32,1.16.5,1.76,2,6.61,4.94,11.48,6.57,10.87s1.3-6.47-.7-13.09q-.4-1.35-.87-2.58l.35-.29c1.63,4.66,4,8,5.32,7.38S677.26,624.93,675.63,620.21Z" transform="translate(63.14 582)"/><polygon class="cls-4" points="866.08 1477.79 908.51 1477.79 922.65 1339.9 908.51 1223.23 844.87 1223.23 869.62 1339.9 866.08 1477.79"/><polygon class="cls-4" points="813.05 1477.79 770.62 1477.79 756.48 1339.9 770.62 1223.23 834.26 1223.23 809.51 1339.9 813.05 1477.79"/><path class="cls-4" d="M942.92,488l-95.15-64.51a9.94,9.94,0,0,0-6.3-1.35,11,11,0,0,0-1.53-.12H718.51a10.56,10.56,0,0,0-1.27.08,9.92,9.92,0,0,0-5.94,1.39L615.92,488c-2.46,1.48-1.75,2.23-1,5l32.73,121.51,23.76-4.69L654.92,503c-.32-2.71-.45-3.8,2-5l50.62-27.58V644.76H844.85a.59.59,0,0,0,.59-.57L850,469.52,903.92,499c2.45,1.2,1.62,2.7,1.29,5.41L887.65,609.82l23.76,4.69L944.92,493C945.66,490.23,945.38,489.48,942.92,488Z" transform="translate(63.14 582)"/><path d="M800.06,907c0-19.53,11.08-35.36,24.75-35.36s24.74,15.83,24.74,35.36" transform="translate(63.14 582)"/><path class="cls-4" d="M862,1484h51.83a.17.17,0,0,1,.17.17v6.21a1.62,1.62,0,0,1-1.62,1.62H863.62a1.62,1.62,0,0,1-1.62-1.62V1484A0,0,0,0,1,862,1484Z"/><path d="M702.06,907c0-19.53,11.08-35.36,24.75-35.36s24.74,15.83,24.74,35.36" transform="translate(63.14 582)"/><path class="cls-4" d="M764,1484h51.83a.17.17,0,0,1,.17.17v6.21a1.62,1.62,0,0,1-1.62,1.62H765.62a1.62,1.62,0,0,1-1.62-1.62V1484A0,0,0,0,1,764,1484Z"/><polygon class="cls-4" points="855.36 1027.01 831.72 1027.01 828.44 977.11 857.33 977.11 855.36 1027.01"/><path class="cls-4" d="M722.73,324.76h4.66a8.78,8.78,0,0,1,8.78,8.78v7.84A9.57,9.57,0,0,1,726.6,351h-3.08a9.57,9.57,0,0,1-9.57-9.57v-7.84A8.78,8.78,0,0,1,722.73,324.76Z" transform="matrix(0, -1, 1, 0, 453.5, 1646.38)"/><path class="cls-4" d="M847.53,335.79v3.07c0,5.31,1.09,9.57-9.53,9.62l-7.84,0a8.79,8.79,0,0,1-8.82-8.74l0-4.66a8.79,8.79,0,0,1,8.75-8.82l7.83,0A9.58,9.58,0,0,1,847.53,335.79Z" transform="translate(63.14 582)"/><circle class="cls-18" cx="700.5" cy="1079.5" r="6.5"/><circle class="cls-30" cx="842.5" cy="1157.5" r="6.5"/><circle class="cls-24" cx="725.5" cy="1204.5" r="6.5"/><circle class="cls-18" cx="783.5" cy="1344.5" r="6.5"/><circle class="cls-20" cx="790.5" cy="1471.5" r="6.5"/><circle class="cls-18" cx="899.5" cy="1344.5" r="6.5"/><circle class="cls-20" cx="887.5" cy="1471.5" r="6.5"/><circle class="cls-18" cx="987.5" cy="1079.5" r="6.5"/><circle class="cls-24" cx="961.5" cy="1203.5" r="6.5"/><path class="cls-16" d="M821,453a12.78,12.78,0,0,0-9.8,4.56,12.76,12.76,0,0,0-9.79-4.56c-7.08,0-13.76,5.93-12.81,12.8,1,7.54,22.53,20.16,22.53,20.16,1.37-.81,21.52-11.82,22.67-20.16C834.72,459,828,453,821,453Z" transform="translate(63.14 582)"/><circle class="cls-24" cx="874.5" cy="1051.5" r="6.5"/><circle class="cls-18" cx="842.5" cy="888.5" r="6.5"/><circle class="cls-30" cx="900.89" cy="919.5" r="6.5"/><circle class="cls-30" cx="784.89" cy="919.5" r="6.5"/><circle class="cls-24" cx="824.38" cy="911.5" r="6.5"/><circle class="cls-24" cx="859.38" cy="911.5" r="6.5"/><circle class="cls-18" cx="842.89" cy="939.5" r="6.5"/><path d="M799.25,379.63a19.5,19.5,0,1,1-39,0" transform="translate(63.14 582)"/><circle class="cls-30" cx="842.89" cy="971.38" r="6.5"/><path d="M839.82,331c3.08,2.16,13.11,1.94,13-.64-1.7-60.1-54.05-88.44-90-56.32,0,0,23.74,22.37,47.3,34.3C826.69,316.69,836.75,328.84,839.82,331Z" transform="translate(63.14 582)"/><path class="cls-4" d="M1573.86,336.38c0,33.9-25.52,81.62-57,81.62s-57-47.72-57-81.62,25.52-61.38,57-61.38S1573.86,302.48,1573.86,336.38Z" transform="translate(63.14 582)"/><path class="cls-4" d="M1382.29,631.75c1.8-3.65,2.76-9.39,4-10.35a13.78,13.78,0,0,1,8.77-7c3.79-1.1,7.7.28,10.77,3.33,0,0,0-.06.08-.07.7-.31,1.79,1.56,2.91,4.09a20,20,0,0,1,1.26,2.73h0a2,2,0,0,1,0,.24,19.12,19.12,0,0,1,.6,1.9c.33.91.64,1.79.92,2.6,1.63,4.72,1.87,9,.54,9.61s-3.69-2.72-5.32-7.38l-.34.29c.3.82.59,1.68.86,2.58,2,6.62,2.32,12.47.7,13.09s-4.56-4.26-6.57-10.87c-.18-.6-.34-1.18-.49-1.76l-.18.06c.24.86.46,1.75.67,2.67,1.7,7.4,1.74,13.79.08,14.26s-4.38-5.14-6.08-12.54c-.23-1-.43-2-.6-3,0,.72.06,1.44.06,2.19,0,6.76-1.37,12.28-3.08,12.32s-3.1-5.39-3.11-12.15c0-1.37.05-2.68.15-3.91l-.42-.25a5.75,5.75,0,0,1-.31.76c-2.09,4.26-5.12,6.94-6.78,6S1380.21,636,1382.29,631.75Z" transform="translate(63.14 582)"/><path class="cls-4" d="M1620.87,631.21c.27-.81.59-1.69.92-2.6.17-.65.37-1.29.59-1.9,0-.08,0-.16,0-.24h0a20,20,0,0,1,1.26-2.73c1.12-2.53,2.21-4.4,2.9-4.09,0,0,.06.05.09.07,3.07-3.05,7-4.43,10.76-3.33a13.8,13.8,0,0,1,8.78,7c1.28,1,2.25,6.69,4,10.35,2.09,4.26,2.44,8.49.79,9.46s-4.7-1.72-6.78-6a7.54,7.54,0,0,1-.32-.76,4.23,4.23,0,0,1-.42.25c.11,1.23.16,2.54.16,3.91,0,6.76-1.41,12.2-3.12,12.15s-3.08-5.56-3.07-12.32c0-.68,0-1.35,0-2-.13.64-.26,1.28-.41,1.94-1.6,7-4.24,12.21-5.9,11.75s-1.71-6.49-.11-13.45c.15-.64.31-1.26.48-1.88l-.16-.05c-.15.58-.31,1.16-.49,1.76-2,6.61-5,11.48-6.57,10.87s-1.31-6.47.7-13.09c.27-.9.56-1.76.86-2.58l-.35-.29c-1.63,4.66-4,8-5.31,7.38S1619.24,635.93,1620.87,631.21Z" transform="translate(63.14 582)"/><path class="cls-4" d="M1353.58,499l95.15-64.51a9.93,9.93,0,0,1,6.29-1.35,11,11,0,0,1,1.53-.12H1578a10.69,10.69,0,0,1,1.27.08,9.94,9.94,0,0,1,5.94,1.39L1680.58,499c2.46,1.48,1.74,2.23,1,5l-32.74,121.51-23.76-4.69L1641.58,514c.32-2.71.45-3.8-2-5L1589,481.42V655.76H1451.64a.59.59,0,0,1-.59-.57l-4.52-174.67-54,29.48c-2.45,1.2-1.62,2.7-1.3,5.41l17.56,105.41-23.76,4.69L1351.58,504C1350.83,501.23,1351.11,500.48,1353.58,499Z" transform="translate(63.14 582)"/><path d="M1496.44,922c0-19.53-11.08-35.36-24.75-35.36s-24.75,15.83-24.75,35.36" transform="translate(63.14 582)"/><path class="cls-4" d="M1447.26,917H1496a1.62,1.62,0,0,1,1.62,1.62v6.21a.17.17,0,0,1-.17.17h-51.83a0,0,0,0,1,0,0v-6.38a1.62,1.62,0,0,1,1.62-1.62Z" transform="translate(3006.41 2424) rotate(-180)"/><path d="M1594.44,922c0-19.53-11.08-35.36-24.75-35.36s-24.75,15.83-24.75,35.36" transform="translate(63.14 582)"/><path class="cls-4" d="M1545.26,917H1594a1.62,1.62,0,0,1,1.62,1.62v6.21a.17.17,0,0,1-.17.17h-51.83a0,0,0,0,1,0,0v-6.38a1.62,1.62,0,0,1,1.62-1.62Z" transform="translate(3202.41 2424) rotate(-180)"/><circle class="cls-18" cx="1579.5" cy="899.5" r="6.5"/><polygon class="cls-4" points="1567.41 1038.01 1591.05 1038.01 1594.33 988.11 1565.44 988.11 1567.41 1038.01"/><path class="cls-4" d="M1459.73,335.76h4.66a8.78,8.78,0,0,1,8.78,8.78v7.84a9.57,9.57,0,0,1-9.57,9.57h-3.08a9.57,9.57,0,0,1-9.57-9.57v-7.84A8.78,8.78,0,0,1,1459.73,335.76Z" transform="matrix(0, -1, 1, 0, 1182.71, 2394.42)"/><path class="cls-4" d="M1584.53,346.79v3.07c0,5.31,1.09,9.57-9.53,9.62l-7.84,0a8.79,8.79,0,0,1-8.82-8.74l0-4.66a8.79,8.79,0,0,1,8.75-8.82l7.83,0A9.58,9.58,0,0,1,1584.53,346.79Z" transform="translate(63.14 582)"/><circle class="cls-30" cx="1637.89" cy="930.5" r="6.5"/><circle class="cls-30" cx="1521.89" cy="930.5" r="6.5"/><circle class="cls-24" cx="1561.38" cy="922.5" r="6.5"/><circle class="cls-24" cx="1596.38" cy="922.5" r="6.5"/><circle class="cls-18" cx="1579.89" cy="950.5" r="6.5"/><path d="M1536.25,390.63a19.5,19.5,0,1,1-39,0" transform="translate(63.14 582)"/><circle class="cls-30" cx="1579.89" cy="982.38" r="6.5"/><path d="M1439.86,428s13,4,34-6,81,8,97,5c14.79-2.77,33-3,33-3-4-6-11-20.79-8.49-47.9s-6.43-33-11.51-55.1c-17.79-77.54-107.63-62.08-129-6-6.39,16.76-13.36,27.59-12.18,57.8A312.73,312.73,0,0,1,1439.86,428Z" transform="translate(63.14 582)"/><path d="M1500.86,276c51-26,80.73,37.48,76,63,0,0-12.94-19.1-26-24C1518.86,303,1500.86,276,1500.86,276Z" transform="translate(63.14 582)"/><path d="M1458.9,342c-3.08,2.16-13.11,1.94-13-.64,1.7-60.1,54.05-88.44,90-56.32,0,0-23.74,22.37-47.3,34.3C1472,327.69,1462,339.84,1458.9,342Z" transform="translate(63.14 582)"/><polygon class="cls-4" points="1556.69 1488.79 1514.26 1488.79 1500.12 1350.9 1514.26 1234.23 1577.9 1234.23 1553.15 1350.9 1556.69 1488.79"/><polygon class="cls-4" points="1609.72 1488.79 1652.15 1488.79 1666.29 1350.9 1652.15 1234.23 1588.51 1234.23 1613.26 1350.9 1609.72 1488.79"/><circle class="cls-30" cx="1578.27" cy="1035.5" r="6.5"/><circle class="cls-30" cx="1578.27" cy="1188.5" r="6.5"/><circle class="cls-24" cx="1721.27" cy="1092.5" r="6.5"/><circle class="cls-24" cx="1433.27" cy="1089.5" r="6.5"/><circle class="cls-18" cx="1636.27" cy="1351.5" r="6.5"/><circle class="cls-30" cx="1632.27" cy="1477.5" r="6.5"/><circle class="cls-30" cx="1532.27" cy="1479.5" r="6.5"/><circle class="cls-18" cx="1522.27" cy="1348.5" r="6.5"/><circle class="cls-18" cx="1578.27" cy="922.5" r="6.5"/><circle class="cls-30" cx="2458.25" cy="1472.83" r="5.47"/><circle class="cls-30" cx="2458.25" cy="1601.54" r="5.47"/><circle class="cls-24" cx="2578.55" cy="1520.78" r="5.47"/><circle class="cls-24" cx="2336.27" cy="1518.26" r="5.47"/><circle class="cls-18" cx="2507.04" cy="1738.66" r="5.47"/><circle class="cls-30" cx="2503.68" cy="1844.66" r="5.47"/><circle class="cls-30" cx="2419.56" cy="1846.34" r="5.47"/><circle class="cls-18" cx="2411.14" cy="1736.14" r="5.47"/><circle class="cls-18" cx="2458.25" cy="1377.77" r="5.47"/><path class="cls-13" d="M2745.32,478.94h450.24a2.79,2.79,0,0,1,2.79,2.79v29.61a0,0,0,0,1,0,0H2742.53a0,0,0,0,1,0,0V481.73A2.79,2.79,0,0,1,2745.32,478.94Z"/><text class="cls-41" transform="translate(2754.07 500.83)">c<tspan class="cls-42" x="8.5" y="0">r</tspan><tspan class="cls-43" x="14.82" y="0">e</tspan><tspan x="23.32" y="0">ate an account:</tspan></text><rect class="cls-36" x="2743.08" y="478.3" width="455.92" height="332.56" rx="4.18" ry="4.18"/><text class="cls-44" transform="translate(2841.75 543.53)">se<tspan class="cls-45" x="13.94" y="0">l</tspan><tspan class="cls-46" x="17.17" y="0">e</tspan><tspan x="24.37" y="0">ct one: </tspan></text><rect class="cls-3" x="2938.9" y="536.48" width="58.24" height="70.08" rx="3.55" ry="3.55"/><g class="cls-47"><path class="cls-34" d="M2910-18.8c0,2.17-2.23,3.92-5,3.92s-5-1.75-5-3.92" transform="translate(63.14 582)"/><path class="cls-4" d="M2934.89,35.86c-.4-.81-.61-2.08-.9-2.29a3.08,3.08,0,0,0-1.94-1.56,2.45,2.45,0,0,0-2.39.74h0c-.15-.07-.4.34-.64.9a4.22,4.22,0,0,0-.28.61h0a.07.07,0,0,0,0,0,3.38,3.38,0,0,0-.13.42c-.08.2-.15.4-.21.58-.36,1.05-.41,2-.12,2.13s.82-.6,1.18-1.64l.08.07c-.07.18-.13.37-.19.57-.45,1.47-.52,2.77-.16,2.9s1-.94,1.46-2.41c0-.13.07-.26.11-.39l0,0a5.08,5.08,0,0,0-.15.59c-.38,1.64-.39,3,0,3.16s1-1.14,1.35-2.78c0-.22.09-.44.13-.65,0,.15,0,.31,0,.48,0,1.5.3,2.72.68,2.73s.69-1.19.69-2.69q0-.47,0-.87l.09-.05a1.11,1.11,0,0,0,.07.16c.46.95,1.14,1.54,1.5,1.33S2935.35,36.81,2934.89,35.86Z" transform="translate(63.14 582)"/><path class="cls-4" d="M2882,35.74l-.2-.57c0-.15-.09-.29-.14-.43v-.05h0a5.5,5.5,0,0,0-.28-.6c-.25-.56-.49-1-.65-.91l0,0a2.39,2.39,0,0,0-2.38-.74,3,3,0,0,0-2,1.55c-.29.21-.5,1.48-.9,2.29s-.54,1.89-.17,2.1,1-.38,1.5-1.32a.87.87,0,0,0,.07-.17l.09.05q0,.42,0,.87c0,1.5.31,2.71.69,2.7s.69-1.24.68-2.74c0-.15,0-.3,0-.44l.09.43c.36,1.54.94,2.71,1.31,2.61s.38-1.44,0-3c0-.14-.06-.28-.1-.41h0c0,.12.07.25.11.39.45,1.46,1.1,2.54,1.46,2.41s.29-1.44-.15-2.91c-.06-.2-.13-.39-.2-.57l.08-.06c.36,1,.89,1.76,1.18,1.63S2882.34,36.79,2882,35.74Z" transform="translate(63.14 582)"/><polygon class="cls-4" points="2973.35 678.86 2982.76 678.86 2985.9 648.28 2982.76 622.4 2968.65 622.4 2974.14 648.28 2973.35 678.86"/><polygon class="cls-4" points="2961.59 678.86 2952.18 678.86 2949.05 648.28 2952.18 622.4 2966.3 622.4 2960.81 648.28 2961.59 678.86"/><path class="cls-4" d="M2941.26,6.42l-21.1-14.31a2.19,2.19,0,0,0-1.4-.29,1.87,1.87,0,0,0-.34,0h-26.93l-.28,0a2.22,2.22,0,0,0-1.32.3L2868.74,6.42c-.55.33-.39.5-.22,1.11l7.26,26.95,5.27-1-3.66-23.69c-.07-.6-.1-.84.44-1.11l11.23-6.12V41.19h30.45a.13.13,0,0,0,.13-.13l1-38.74,12,6.54c.54.27.36.6.29,1.2L2929,33.44l5.27,1,7.43-26.95C2941.87,6.92,2941.8,6.75,2941.26,6.42Z" transform="translate(63.14 582)"/><path d="M2909.58,99.35c0-4.34,2.45-7.85,5.48-7.85s5.49,3.51,5.49,7.85" transform="translate(63.14 582)"/><path class="cls-4" d="M2972.45,680.24h11.49a0,0,0,0,1,0,0v1.38a.36.36,0,0,1-.36.36h-10.81a.36.36,0,0,1-.36-.36v-1.41A0,0,0,0,1,2972.45,680.24Z"/><path d="M2887.84,99.35c0-4.34,2.46-7.85,5.49-7.85s5.49,3.51,5.49,7.85" transform="translate(63.14 582)"/><path class="cls-4" d="M2950.71,680.24h11.49a0,0,0,0,1,0,0v1.38a.36.36,0,0,1-.36.36h-10.81a.36.36,0,0,1-.36-.36v-1.41A0,0,0,0,1,2950.71,680.24Z"/><circle class="cls-24" cx="2968.12" cy="548.17" r="1.44"/><polygon class="cls-4" points="2970.98 578.89 2965.73 578.89 2965.01 567.82 2971.41 567.82 2970.98 578.89"/><path class="cls-4" d="M2902.16-40H2908a9.72,9.72,0,0,1,9.72,9.72v7.91a10.59,10.59,0,0,1-10.59,10.59H2903a10.59,10.59,0,0,1-10.59-10.59v-7.91A9.72,9.72,0,0,1,2902.16-40Z" transform="translate(63.28 594.65) rotate(-0.25)"/><path class="cls-4" d="M2916.68-29.89h1a1.95,1.95,0,0,1,1.95,1.95v1.74a2.12,2.12,0,0,1-2.12,2.12h-.68a2.12,2.12,0,0,1-2.12-2.12v-1.74A1.95,1.95,0,0,1,2916.68-29.89Z" transform="translate(3020.03 3472.07) rotate(-90.25)"/><path class="cls-4" d="M2892.43-29.78h1a1.95,1.95,0,0,1,1.95,1.95v1.74a2.12,2.12,0,0,1-2.12,2.12h-.68a2.12,2.12,0,0,1-2.12-2.12v-1.74A1.95,1.95,0,0,1,2892.43-29.78Z" transform="translate(2995.56 3447.92) rotate(-90.25)"/><path d="M2913.94-34.48s-7.65,2.42-12.54.79c-2.36-.79-6.28,1.56-8.63.78s-2.35-2.12-2.35-3.77v-4.07s5.1,1.57,8.82,0,14.7,0,14.7,0Z" transform="translate(63.14 582)"/><path d="M2918-30.64c-2,.55-4.18-1.22-4.53-3.75v-.12a20,20,0,0,0-1.1-4.62c-.36-.89,2.41-3.46,2.41-3.46a22.16,22.16,0,0,0,1.48,5.47c.91,1.62,1.75,6.48,1.75,6.48Z" transform="translate(63.14 582)"/></g><g class="cls-47"><path class="cls-34" d="M2910-18.8c0,2.17-2.23,3.92-5,3.92s-5-1.75-5-3.92" transform="translate(63.14 582)"/><path class="cls-4" d="M2934.89,35.86c-.4-.81-.61-2.08-.9-2.29a3.08,3.08,0,0,0-1.94-1.56,2.45,2.45,0,0,0-2.39.74h0c-.15-.07-.4.34-.64.9a4.22,4.22,0,0,0-.28.61h0a.07.07,0,0,0,0,0,3.38,3.38,0,0,0-.13.42c-.08.2-.15.4-.21.58-.36,1.05-.41,2-.12,2.13s.82-.6,1.18-1.64l.08.07c-.07.18-.13.37-.19.57-.45,1.47-.52,2.77-.16,2.9s1-.94,1.46-2.41c0-.13.07-.26.11-.39l0,0a5.08,5.08,0,0,0-.15.59c-.38,1.64-.39,3,0,3.16s1-1.14,1.35-2.78c0-.22.09-.44.13-.65,0,.15,0,.31,0,.48,0,1.5.3,2.72.68,2.73s.69-1.19.69-2.69q0-.47,0-.87l.09-.05a1.11,1.11,0,0,0,.07.16c.46.95,1.14,1.54,1.5,1.33S2935.35,36.81,2934.89,35.86Z" transform="translate(63.14 582)"/><path class="cls-4" d="M2882,35.74l-.2-.57c0-.15-.09-.29-.14-.43v-.05h0a5.5,5.5,0,0,0-.28-.6c-.25-.56-.49-1-.65-.91l0,0a2.39,2.39,0,0,0-2.38-.74,3,3,0,0,0-2,1.55c-.29.21-.5,1.48-.9,2.29s-.54,1.89-.17,2.1,1-.38,1.5-1.32a.87.87,0,0,0,.07-.17l.09.05q0,.42,0,.87c0,1.5.31,2.71.69,2.7s.69-1.24.68-2.74c0-.15,0-.3,0-.44l.09.43c.36,1.54.94,2.71,1.31,2.61s.38-1.44,0-3c0-.14-.06-.28-.1-.41h0c0,.12.07.25.11.39.45,1.46,1.1,2.54,1.46,2.41s.29-1.44-.15-2.91c-.06-.2-.13-.39-.2-.57l.08-.06c.36,1,.89,1.76,1.18,1.63S2882.34,36.79,2882,35.74Z" transform="translate(63.14 582)"/><polygon class="cls-4" points="2973.35 678.86 2982.76 678.86 2985.9 648.28 2982.76 622.4 2968.65 622.4 2974.14 648.28 2973.35 678.86"/><polygon class="cls-4" points="2961.59 678.86 2952.18 678.86 2949.05 648.28 2952.18 622.4 2966.3 622.4 2960.81 648.28 2961.59 678.86"/><path class="cls-4" d="M2941.26,6.42l-21.1-14.31a2.19,2.19,0,0,0-1.4-.29,1.87,1.87,0,0,0-.34,0h-26.93l-.28,0a2.22,2.22,0,0,0-1.32.3L2868.74,6.42c-.55.33-.39.5-.22,1.11l7.26,26.95,5.27-1-3.66-23.69c-.07-.6-.1-.84.44-1.11l11.23-6.12V41.19h30.45a.13.13,0,0,0,.13-.13l1-38.74,12,6.54c.54.27.36.6.29,1.2L2929,33.44l5.27,1,7.43-26.95C2941.87,6.92,2941.8,6.75,2941.26,6.42Z" transform="translate(63.14 582)"/><path d="M2909.58,99.35c0-4.34,2.45-7.85,5.48-7.85s5.49,3.51,5.49,7.85" transform="translate(63.14 582)"/><path class="cls-4" d="M2972.45,680.24h11.49a0,0,0,0,1,0,0v1.38a.36.36,0,0,1-.36.36h-10.81a.36.36,0,0,1-.36-.36v-1.41A0,0,0,0,1,2972.45,680.24Z"/><path d="M2887.84,99.35c0-4.34,2.46-7.85,5.49-7.85s5.49,3.51,5.49,7.85" transform="translate(63.14 582)"/><path class="cls-4" d="M2950.71,680.24h11.49a0,0,0,0,1,0,0v1.38a.36.36,0,0,1-.36.36h-10.81a.36.36,0,0,1-.36-.36v-1.41A0,0,0,0,1,2950.71,680.24Z"/><circle class="cls-24" cx="2968.12" cy="548.17" r="1.44"/><polygon class="cls-4" points="2970.98 578.89 2965.73 578.89 2965.01 567.82 2971.41 567.82 2970.98 578.89"/><path class="cls-4" d="M2902.16-40H2908a9.72,9.72,0,0,1,9.72,9.72v7.91a10.59,10.59,0,0,1-10.59,10.59H2903a10.59,10.59,0,0,1-10.59-10.59v-7.91A9.72,9.72,0,0,1,2902.16-40Z" transform="translate(63.28 594.65) rotate(-0.25)"/><path class="cls-4" d="M2916.68-29.89h1a1.95,1.95,0,0,1,1.95,1.95v1.74a2.12,2.12,0,0,1-2.12,2.12h-.68a2.12,2.12,0,0,1-2.12-2.12v-1.74A1.95,1.95,0,0,1,2916.68-29.89Z" transform="translate(3020.03 3472.07) rotate(-90.25)"/><path class="cls-4" d="M2892.43-29.78h1a1.95,1.95,0,0,1,1.95,1.95v1.74a2.12,2.12,0,0,1-2.12,2.12h-.68a2.12,2.12,0,0,1-2.12-2.12v-1.74A1.95,1.95,0,0,1,2892.43-29.78Z" transform="translate(2995.56 3447.92) rotate(-90.25)"/><path d="M2913.94-34.48s-7.65,2.42-12.54.79c-2.36-.79-6.28,1.56-8.63.78s-2.35-2.12-2.35-3.77v-4.07s5.1,1.57,8.82,0,14.7,0,14.7,0Z" transform="translate(63.14 582)"/><path d="M2918-30.64c-2,.55-4.18-1.22-4.53-3.75v-.12a20,20,0,0,0-1.1-4.62c-.36-.89,2.41-3.46,2.41-3.46a22.16,22.16,0,0,0,1.48,5.47c.91,1.62,1.75,6.48,1.75,6.48Z" transform="translate(63.14 582)"/></g><text class="cls-48" transform="translate(2959.08 590.5)">ma<tspan class="cls-49" x="12.69" y="0">l</tspan><tspan x="14.81" y="0">e</tspan></text><rect class="cls-2" x="2934.55" y="531.24" width="66.95" height="80.55" rx="4.08" ry="4.08"/><rect class="cls-6" x="3018.91" y="536.48" width="58.24" height="70.08" rx="3.55" ry="3.55"/><text class="cls-50" transform="translate(3035.54 591)">ma<tspan class="cls-51" x="15.56" y="0">l</tspan><tspan class="cls-52" x="18.17" y="0">e</tspan></text><rect class="cls-2" x="3014.56" y="531.24" width="66.95" height="80.55" rx="4.08" ry="4.08"/><g class="cls-53"><path d="M3002.22-11.11s-2.88.88-7.52-1.33-17.9,1.77-21.43,1.11A49.85,49.85,0,0,0,2966-12c.89-1.32,2.43-4.59,1.88-10.58s1.42-7.29,2.54-12.18c3.94-17.13,23.79-13.72,28.51-1.33,1.41,3.71,2.95,6.1,2.69,12.78A68.84,68.84,0,0,0,3002.22-11.11Z" transform="translate(63.14 582)"/><path class="cls-4" d="M2997.36-31.36c0,7.49-5.64,18-12.6,18s-12.6-10.55-12.6-18,5.64-13.57,12.6-13.57S2997.36-38.85,2997.36-31.36Z" transform="translate(63.14 582)"/><path d="M2988.74-44.7c-11.27-5.75-17.84,8.28-16.8,13.92,0,0,2.86-4.22,5.75-5.31A25.26,25.26,0,0,0,2988.74-44.7Z" transform="translate(63.14 582)"/><path class="cls-4" d="M2961.72,33.79l-.2-.57c0-.14-.08-.29-.13-.42a.07.07,0,0,0,0,0h0a4.22,4.22,0,0,0-.28-.61c-.24-.55-.49-1-.64-.9l0,0a2.41,2.41,0,0,0-2.38-.74,3.06,3.06,0,0,0-1.94,1.55c-.28.21-.49,1.48-.89,2.28s-.54,1.88-.17,2.09,1-.37,1.49-1.32a1.11,1.11,0,0,0,.07-.16l.1,0a8,8,0,0,0,0,.87c0,1.49.31,2.69.69,2.68s.68-1.23.68-2.72c0-.15,0-.3,0-.44l.09.42c.35,1.54.94,2.7,1.3,2.6s.38-1.43,0-3c0-.14-.07-.28-.11-.42h0c0,.13.07.26.11.39.44,1.46,1.09,2.54,1.45,2.4s.29-1.43-.16-2.89c-.06-.2-.12-.39-.19-.57l.08-.06c.36,1,.88,1.75,1.17,1.63S2962.08,34.84,2961.72,33.79Z" transform="translate(63.14 582)"/><polygon class="cls-4" points="3053 676.69 3062.37 676.69 3065.5 646.22 3062.37 620.44 3048.31 620.44 3053.78 646.22 3053 676.69"/><polygon class="cls-4" points="3041.28 676.69 3031.9 676.69 3028.78 646.22 3031.9 620.44 3045.97 620.44 3040.5 646.22 3041.28 676.69"/><path class="cls-4" d="M3020.79,4.58l-21-14.26a2.27,2.27,0,0,0-1.4-.3l-.33,0h-27.12a2.21,2.21,0,0,0-1.31.31L2948.53,4.58c-.54.32-.39.49-.22,1.1l7.23,26.85,5.25-1-3.64-23.61c-.07-.6-.1-.84.44-1.1l11.19-6.1V39.22h30.34a.13.13,0,0,0,.13-.13l1-38.6L3012.17,7c.55.26.36.59.29,1.19l-3.88,23.3,5.25,1,7.4-26.85C3021.4,5.07,3021.34,4.9,3020.79,4.58Z" transform="translate(63.14 582)"/><path d="M2989.22,97.17c0-4.31,2.45-7.81,5.47-7.81s5.47,3.5,5.47,7.81" transform="translate(63.14 582)"/><path class="cls-4" d="M3052.1,678.07h11.45a0,0,0,0,1,0,0v1.37a.36.36,0,0,1-.36.36h-10.77a.36.36,0,0,1-.36-.36v-1.41A0,0,0,0,1,3052.1,678.07Z"/><path d="M2967.56,97.17c0-4.31,2.45-7.81,5.47-7.81s5.47,3.5,5.47,7.81" transform="translate(63.14 582)"/><path class="cls-4" d="M3030.44,678.07h11.45a0,0,0,0,1,0,0v1.37a.36.36,0,0,1-.36.36H3030.8a.36.36,0,0,1-.36-.36v-1.41A0,0,0,0,1,3030.44,678.07Z"/><polygon class="cls-4" points="3050.63 577.08 3045.41 577.08 3044.68 566.05 3051.06 566.05 3050.63 577.08"/><path class="cls-4" d="M2972.13-31.5h1a1.94,1.94,0,0,1,1.94,1.94v1.73a2.12,2.12,0,0,1-2.12,2.12h-.68a2.12,2.12,0,0,1-2.12-2.12v-1.73a1.94,1.94,0,0,1,1.94-1.94Z" transform="translate(3077.34 3525.89) rotate(-90.25)"/><path class="cls-4" d="M2999.71-29.06v.68c0,1.17.24,2.11-2.11,2.12h-1.73a1.94,1.94,0,0,1-2-1.93v-1a1.94,1.94,0,0,1,1.94-1.95h1.73A2.11,2.11,0,0,1,2999.71-29.06Z" transform="translate(63.14 582)"/><path d="M2998-30.12c.68.48,2.9.43,2.88-.14-.37-13.28-11.94-19.55-19.88-12.45a53.25,53.25,0,0,0,10.45,7.58A29.14,29.14,0,0,1,2998-30.12Z" transform="translate(63.14 582)"/></g><rect class="cls-2" x="3014.56" y="531.24" width="66.95" height="80.55" rx="4.08" ry="4.08"/><text class="cls-48" transform="translate(3033.83 590.5)"><tspan class="cls-54">f</tspan><tspan x="2.73" y="0">ema</tspan><tspan class="cls-49" x="20.3" y="0">l</tspan><tspan x="22.43" y="0">e</tspan></text><text class="cls-44" transform="translate(2846.78 668.48)">name: </text><text class="cls-44" transform="translate(2846.78 697.42)">e-mail:</text><text class="cls-44" transform="translate(2846.78 725.81)">pass<tspan class="cls-46" x="29.5" y="0">w</tspan><tspan class="cls-55" x="37.98" y="0">o</tspan><tspan class="cls-56" x="46.06" y="0">r</tspan><tspan class="cls-57" x="51.41" y="0">d:</tspan></text><text class="cls-58" transform="translate(2948.02 748.29)">sh<tspan class="cls-59" x="11.91" y="0">o</tspan><tspan class="cls-60" x="18.25" y="0">w pass</tspan><tspan class="cls-61" x="52.49" y="0">w</tspan><tspan class="cls-60" x="59.55" y="0">o</tspan><tspan class="cls-62" x="66.18" y="0">r</tspan><tspan class="cls-60" x="70.27" y="0">d</tspan></text><rect class="cls-2" x="2933.87" y="656.16" width="142.87" height="17.96" rx="2.27" ry="2.27"/><rect class="cls-2" x="2933.87" y="685.1" width="142.87" height="17.96" rx="2.27" ry="2.27"/><rect class="cls-2" x="2933.87" y="713.49" width="142.87" height="17.96" rx="2.27" ry="2.27"/><text class="cls-44" transform="translate(2846.24 638.53)">age: </text><rect class="cls-2" x="2934.87" y="626.2" width="74.02" height="17.96" rx="1.63" ry="1.63"/><path class="cls-4" d="M2933.24,57a.61.61,0,0,1-1.06,0l-2-3.48-2-3.48a.61.61,0,0,1,.54-.92h8a.61.61,0,0,1,.54.92l-2,3.48Z" transform="translate(63.14 582)"/><text class="cls-63" transform="translate(2943.29 639.62)">se<tspan class="cls-64" x="13.81" y="0">l</tspan><tspan class="cls-46" x="16.82" y="0">e</tspan><tspan x="23.94" y="0">ct</tspan></text><rect class="cls-2" x="2934.41" y="738.96" width="9.8" height="9.8" rx="1.22" ry="1.22"/><rect class="cls-13" x="3026.31" y="772.61" width="74.02" height="17.96" rx="1.63" ry="1.63"/><path class="cls-4" d="M3027.93,199.06a.62.62,0,0,1,0,1.07l-3.47,2-3.48,2a.61.61,0,0,1-.92-.53v-8a.61.61,0,0,1,.92-.53l3.48,2Z" transform="translate(63.14 582)"/><text class="cls-63" transform="translate(3034.73 786.03)">submit</text><path class="cls-6" d="M3300.32,478.94h450.24a2.79,2.79,0,0,1,2.79,2.79v29.61a0,0,0,0,1,0,0H3297.53a0,0,0,0,1,0,0V481.73A2.79,2.79,0,0,1,3300.32,478.94Z"/><text class="cls-41" transform="translate(3308.07 500.83)">sign in:</text><rect class="cls-36" x="3297" y="478.3" width="455.92" height="332.56" rx="4.18" ry="4.18"/><text class="cls-44" transform="translate(3409.86 625.42)">e-mail:</text><rect class="cls-2" x="3496.94" y="613.1" width="142.87" height="17.96" rx="2.27" ry="2.27"/><text class="cls-44" transform="translate(3409.86 653.81)">pass<tspan class="cls-46" x="29.5" y="0">w</tspan><tspan class="cls-55" x="37.98" y="0">o</tspan><tspan class="cls-56" x="46.06" y="0">r</tspan><tspan class="cls-57" x="51.41" y="0">d:</tspan></text><text class="cls-58" transform="translate(3511.09 676.29)">sh<tspan class="cls-59" x="11.91" y="0">o</tspan><tspan class="cls-60" x="18.25" y="0">w pass</tspan><tspan class="cls-61" x="52.49" y="0">w</tspan><tspan class="cls-60" x="59.55" y="0">o</tspan><tspan class="cls-62" x="66.18" y="0">r</tspan><tspan class="cls-60" x="70.27" y="0">d</tspan></text><rect class="cls-2" x="3496.94" y="641.49" width="142.87" height="17.96" rx="2.27" ry="2.27"/><rect class="cls-2" x="3497.49" y="666.96" width="9.8" height="9.8" rx="1.22" ry="1.22"/><rect class="cls-6" x="3584.73" y="706" width="55.34" height="18" rx="1.41" ry="1.41"/><text class="cls-65" transform="translate(3591.53 718.35)">sign in</text><rect class="cls-66" x="3583.89" y="975" width="55.34" height="18" rx="1.41" ry="1.41"/><text class="cls-65" transform="translate(3594.37 987.35)">f<tspan class="cls-67" x="4.4" y="0">r</tspan><tspan x="9.76" y="0">ont</tspan></text><rect class="cls-2" x="3639.89" y="975" width="55.34" height="18" rx="1.41" ry="1.41"/><text class="cls-65" transform="translate(3650.37 987.35)">back</text><path d="M3020.58,776.84s-10.93,3.36-28.6-5.05-68.14,6.73-81.6,4.21c-12.45-2.34-27.76-2.53-27.76-2.53,3.36-5,9.24-17.49,7.14-40.29s5.41-27.75,9.68-46.35c15-65.23,90.55-52.23,108.52-5.05,5.38,14.1,11.24,23.21,10.25,48.62A263.54,263.54,0,0,0,3020.58,776.84Z" transform="translate(63.14 582)"/><path class="cls-4" d="M3002.07,699.76c0,28.52-21.46,68.67-48,68.67s-47.95-40.15-47.95-68.67,21.47-51.63,47.95-51.63S3002.07,671.25,3002.07,699.76Z" transform="translate(63.14 582)"/><path d="M2969.27,649c-42.91-21.87-67.92,31.53-63.94,53,0,0,10.89-16.07,21.87-20.19C2954.12,671.68,2969.27,649,2969.27,649Z" transform="translate(63.14 582)"/><path class="cls-4" d="M3067.13,948.24c-1.5-3.07-2.32-7.89-3.4-8.7a11.64,11.64,0,0,0-7.38-5.9c-3.18-.92-6.48.25-9.06,2.81,0,0,0-.05-.07-.06-.58-.26-1.5,1.32-2.44,3.44a16.66,16.66,0,0,0-1.06,2.3h0a1.2,1.2,0,0,0,0,.2,16.54,16.54,0,0,0-.5,1.6c-.28.76-.54,1.51-.78,2.18-1.37,4-1.57,7.6-.45,8.09s3.1-2.29,4.47-6.21a3.47,3.47,0,0,0,.29.25c-.25.69-.5,1.41-.72,2.17-1.69,5.56-1.95,10.49-.59,11s3.84-3.58,5.52-9.15c.16-.5.29-1,.42-1.47l.15,0q-.3,1.09-.57,2.25c-1.43,6.23-1.46,11.6-.06,12s3.68-4.33,5.11-10.55c.19-.85.36-1.68.5-2.48,0,.6,0,1.21,0,1.84,0,5.69,1.14,10.33,2.58,10.37s2.62-4.54,2.63-10.23c0-1.15-.05-2.25-.14-3.29l.36-.2a5.93,5.93,0,0,0,.26.63c1.76,3.59,4.31,5.84,5.7,5S3068.89,951.83,3067.13,948.24Z" transform="translate(63.14 582)"/><path class="cls-4" d="M2866.44,947.79c-.24-.68-.5-1.42-.78-2.18-.15-.55-.31-1.09-.5-1.61a1.62,1.62,0,0,0,0-.2h0a16.66,16.66,0,0,0-1.06-2.3c-.94-2.12-1.86-3.7-2.44-3.44,0,0-.05,0-.07.06-2.59-2.56-5.88-3.72-9.06-2.8a11.64,11.64,0,0,0-7.39,5.89c-1.07.81-1.89,5.63-3.4,8.7-1.75,3.59-2.05,7.15-.66,8s3.95-1.44,5.71-5a6.11,6.11,0,0,0,.26-.64l.35.2c-.08,1-.13,2.14-.13,3.3,0,5.68,1.19,10.26,2.63,10.22s2.59-4.68,2.58-10.37c0-.57,0-1.13,0-1.68.1.53.22,1.08.34,1.63,1.35,5.85,3.57,10.28,5,9.88s1.43-5.46.09-11.31c-.13-.54-.26-1.06-.4-1.58l.13,0c.13.48.26,1,.41,1.48,1.69,5.56,4.17,9.65,5.53,9.14s1.1-5.45-.59-11c-.23-.75-.47-1.48-.72-2.17l.29-.24c1.37,3.92,3.36,6.69,4.47,6.2S2867.81,951.76,2866.44,947.79Z" transform="translate(63.14 582)"/><polygon class="cls-4" points="3036.68 1761.62 3072.37 1761.62 3084.27 1645.62 3072.37 1547.47 3018.83 1547.47 3039.65 1645.62 3036.68 1761.62"/><polygon class="cls-4" points="2992.07 1761.62 2956.37 1761.62 2944.48 1645.62 2956.37 1547.47 3009.91 1547.47 2989.09 1645.62 2992.07 1761.62"/><path class="cls-4" d="M3091.29,836.57l-80-54.27a8.32,8.32,0,0,0-5.3-1.13,9.08,9.08,0,0,0-1.28-.1H2902.51a9.46,9.46,0,0,0-1.07.06,8.42,8.42,0,0,0-5,1.17l-80.23,54.27c-2.07,1.24-1.47,1.87-.84,4.2L2842.9,943l20-3.94L2849,849.19c-.28-2.28-.38-3.2,1.68-4.21l42.58-23.2V968.44H3008.8a.48.48,0,0,0,.49-.48L3013.1,821l45.39,24.8c2.06,1,1.36,2.27,1.09,4.55l-14.78,88.68,20,3.94L3093,840.77C3093.6,838.44,3093.37,837.81,3091.29,836.57Z" transform="translate(63.14 582)"/><path d="M2971.11,1189.05c0-16.43,9.32-29.74,20.82-29.74s20.82,13.31,20.82,29.74" transform="translate(63.14 582)"/><path class="cls-4" d="M3033.25,1766.84h43.6a.14.14,0,0,1,.14.14v5.22a1.37,1.37,0,0,1-1.37,1.37h-41a1.37,1.37,0,0,1-1.37-1.37v-5.36A0,0,0,0,1,3033.25,1766.84Z"/><path d="M2888.67,1189.05c0-16.43,9.32-29.74,20.82-29.74s20.82,13.31,20.82,29.74" transform="translate(63.14 582)"/><path class="cls-4" d="M2950.8,1766.84h43.6a.14.14,0,0,1,.14.14v5.22a1.37,1.37,0,0,1-1.37,1.37h-41a1.37,1.37,0,0,1-1.37-1.37v-5.36A0,0,0,0,1,2950.8,1766.84Z"/><polygon class="cls-4" points="3027.66 1382.4 3007.78 1382.4 3005.01 1340.42 3029.32 1340.42 3027.66 1382.4"/><path class="cls-4" d="M2906.06,699.24H2910a7.39,7.39,0,0,1,7.39,7.39v6.59a8.05,8.05,0,0,1-8.05,8.05h-2.59a8.05,8.05,0,0,1-8.05-8.05v-6.59a7.39,7.39,0,0,1,7.39-7.39Z" transform="translate(2273.57 4203.35) rotate(-90.25)"/><path class="cls-4" d="M3011.05,708.52v2.59c0,4.46.92,8-8,8.08l-6.59,0a7.38,7.38,0,0,1-7.42-7.35l0-3.92a7.39,7.39,0,0,1,7.36-7.42l6.59,0A8.05,8.05,0,0,1,3011.05,708.52Z" transform="translate(63.14 582)"/><circle class="cls-18" cx="2897.38" cy="1426.56" r="5.47"/><circle class="cls-30" cx="3016.84" cy="1492.18" r="5.47"/><circle class="cls-24" cx="2918.41" cy="1531.72" r="5.47"/><circle class="cls-18" cx="2967.21" cy="1649.49" r="5.47"/><circle class="cls-20" cx="2973.1" cy="1756.33" r="5.47"/><circle class="cls-18" cx="3064.79" cy="1649.49" r="5.47"/><circle class="cls-20" cx="3054.7" cy="1756.33" r="5.47"/><circle class="cls-18" cx="3138.82" cy="1426.56" r="5.47"/><circle class="cls-24" cx="3116.95" cy="1530.87" r="5.47"/><path class="cls-16" d="M2988.7,807.14a10.76,10.76,0,0,1-16.48,0c-5.95,0-11.57,5-10.77,10.77.87,6.34,19,17,19,17,1.16-.68,18.11-9.94,19.07-17C3000.27,812.13,2994.65,807.14,2988.7,807.14Z" transform="translate(63.14 582)"/><circle class="cls-24" cx="3043.76" cy="1403" r="5.47"/><circle class="cls-18" cx="3016.84" cy="1265.88" r="5.47"/><circle class="cls-30" cx="3065.96" cy="1291.96" r="5.47"/><circle class="cls-30" cx="2968.37" cy="1291.96" r="5.47"/><circle class="cls-24" cx="3001.6" cy="1285.23" r="5.47"/><circle class="cls-24" cx="3031.04" cy="1285.23" r="5.47"/><circle class="cls-18" cx="3017.17" cy="1308.78" r="5.47"/><path d="M2970.43,745.4a16.41,16.41,0,0,1-32.81,0" transform="translate(63.14 582)"/><circle class="cls-30" cx="3017.17" cy="1335.6" r="5.47"/><path d="M3004.57,704.49c2.58,1.81,11,1.63,11-.55-1.42-50.55-45.47-74.4-75.69-47.37,0,0,20,18.82,39.79,28.85C2993.52,692.46,3002,702.67,3004.57,704.49Z" transform="translate(63.14 582)"/><path class="cls-4" d="M3622.07,709c0,28.51-21.47,68.66-48,68.66s-47.95-40.15-47.95-68.66,21.47-51.64,47.95-51.64S3622.07,680.5,3622.07,709Z" transform="translate(63.14 582)"/><path class="cls-4" d="M3460.92,957.49c1.5-3.07,2.32-7.89,3.4-8.7a11.62,11.62,0,0,1,7.38-5.89c3.18-.92,6.48.24,9.06,2.8,0,0,0-.05.07-.06.58-.26,1.5,1.32,2.45,3.45a19.24,19.24,0,0,1,1.06,2.29h0c0,.07,0,.14,0,.2.19.52.36,1.06.51,1.61.27.76.54,1.5.77,2.18,1.37,4,1.58,7.6.46,8.09s-3.11-2.29-4.48-6.21l-.29.24c.25.69.5,1.42.73,2.17,1.69,5.57,2,10.49.58,11s-3.83-3.58-5.52-9.14c-.15-.5-.29-1-.42-1.48l-.15.05q.3,1.08.57,2.25c1.43,6.22,1.46,11.59.07,12s-3.69-4.32-5.12-10.55c-.19-.84-.36-1.67-.5-2.48,0,.6,0,1.21,0,1.85,0,5.68-1.15,10.32-2.59,10.36s-2.61-4.54-2.62-10.22c0-1.15,0-2.26.13-3.3l-.35-.2a6.14,6.14,0,0,1-.27.64c-1.75,3.58-4.31,5.83-5.7,5S3459.16,961.08,3460.92,957.49Z" transform="translate(63.14 582)"/><path class="cls-4" d="M3661.62,957c.23-.68.49-1.42.77-2.18.15-.55.32-1.09.5-1.6a1.52,1.52,0,0,0,0-.21h0a17.78,17.78,0,0,1,1.06-2.29c.94-2.13,1.86-3.7,2.45-3.45,0,0,0,0,.07.06,2.58-2.56,5.87-3.72,9.05-2.8a11.64,11.64,0,0,1,7.39,5.89c1.08.81,1.89,5.63,3.4,8.71,1.76,3.58,2,7.15.66,8s-3.95-1.45-5.71-5c-.09-.2-.18-.42-.26-.64l-.35.21c.08,1,.13,2.14.13,3.29,0,5.69-1.18,10.26-2.62,10.22s-2.6-4.68-2.59-10.36c0-.58,0-1.14,0-1.69-.1.54-.21,1.08-.34,1.64-1.34,5.85-3.57,10.27-5,9.87s-1.44-5.45-.09-11.3c.12-.55.26-1.07.4-1.59l-.14,0c-.12.49-.26,1-.41,1.48-1.69,5.56-4.16,9.66-5.53,9.14s-1.1-5.44.59-11c.23-.75.47-1.47.73-2.17l-.3-.24c-1.37,3.92-3.36,6.69-4.47,6.21S3660.24,961,3661.62,957Z" transform="translate(63.14 582)"/><path class="cls-4" d="M3436.76,845.82l80-54.27a8.39,8.39,0,0,1,5.3-1.13,9.1,9.1,0,0,1,1.29-.1h102.16a9.28,9.28,0,0,1,1.06.07,8.34,8.34,0,0,1,5,1.16l80.24,54.27c2.07,1.24,1.46,1.87.84,4.21l-27.54,102.21-20-3.94L3679,858.44c.27-2.28.38-3.19-1.68-4.21L3634.77,831V977.7H3519.26a.5.5,0,0,1-.5-.48l-3.8-147-45.39,24.81c-2.06,1-1.36,2.27-1.09,4.55l14.77,88.67-20,3.94L3435.08,850C3434.45,847.69,3434.69,847.06,3436.76,845.82Z" transform="translate(63.14 582)"/><path d="M3556.94,1201.67c0-16.43-9.32-29.74-20.82-29.74s-20.82,13.31-20.82,29.74" transform="translate(63.14 582)"/><path class="cls-4" d="M3515.57,1197.46h41a1.37,1.37,0,0,1,1.37,1.37V1204a.14.14,0,0,1-.14.14h-43.6a0,0,0,0,1,0,0v-5.36A1.37,1.37,0,0,1,3515.57,1197.46Z" transform="translate(7135.29 2983.66) rotate(-180)"/><path d="M3639.38,1201.67c0-16.43-9.32-29.74-20.82-29.74s-20.82,13.31-20.82,29.74" transform="translate(63.14 582)"/><path class="cls-4" d="M3598,1197.46h41a1.37,1.37,0,0,1,1.37,1.37V1204a.14.14,0,0,1-.14.14h-43.6a0,0,0,0,1,0,0v-5.36A1.37,1.37,0,0,1,3598,1197.46Z" transform="translate(7300.17 2983.66) rotate(-180)"/><circle class="cls-18" cx="3636.84" cy="1275.14" r="5.47"/><polygon class="cls-4" points="3626.67 1391.65 3646.55 1391.65 3649.32 1349.67 3625.01 1349.67 3626.67 1391.65"/><path class="cls-4" d="M3526.06,708.5H3530a7.39,7.39,0,0,1,7.39,7.39v6.59a8.05,8.05,0,0,1-8.05,8.05h-2.59a8.05,8.05,0,0,1-8.05-8.05v-6.59A7.39,7.39,0,0,1,3526.06,708.5Z" transform="translate(2887.02 4832.63) rotate(-90.25)"/><path class="cls-4" d="M3631.05,717.77v2.59c0,4.47.91,8-8,8.09l-6.59,0a7.4,7.4,0,0,1-7.42-7.36l0-3.92a7.39,7.39,0,0,1,7.36-7.42l6.59,0A8.05,8.05,0,0,1,3631.05,717.77Z" transform="translate(63.14 582)"/><circle class="cls-30" cx="3685.96" cy="1301.21" r="5.47"/><circle class="cls-30" cx="3588.37" cy="1301.21" r="5.47"/><circle class="cls-24" cx="3621.6" cy="1294.48" r="5.47"/><circle class="cls-24" cx="3651.04" cy="1294.48" r="5.47"/><circle class="cls-18" cx="3637.16" cy="1318.04" r="5.47"/><path d="M3590.43,754.65a16.41,16.41,0,1,1-32.81,0" transform="translate(63.14 582)"/><circle class="cls-30" cx="3637.16" cy="1344.85" r="5.47"/><path d="M3509.35,786.09s10.93,3.37,28.6-5,68.14,6.73,81.6,4.2c12.44-2.33,27.76-2.52,27.76-2.52-3.36-5.05-9.24-17.49-7.15-40.29s-5.41-27.76-9.67-46.36c-15-65.23-90.55-52.23-108.53-5.05-5.37,14.11-11.23,23.21-10.24,48.62A263.54,263.54,0,0,1,3509.35,786.09Z" transform="translate(63.14 582)"/><path d="M3560.66,658.22c42.91-21.87,67.91,31.53,63.94,53,0,0-10.89-16.07-21.88-20.19C3575.8,680.94,3560.66,658.22,3560.66,658.22Z" transform="translate(63.14 582)"/><path d="M3525.36,713.74c-2.59,1.81-11,1.63-11-.55,1.43-50.55,45.47-74.4,75.7-47.37,0,0-20,18.82-39.79,28.86C3536.41,701.71,3528,711.93,3525.36,713.74Z" transform="translate(63.14 582)"/><polygon class="cls-4" points="3617.65 1770.87 3581.96 1770.87 3570.06 1654.88 3581.96 1556.72 3635.5 1556.72 3614.68 1654.88 3617.65 1770.87"/><polygon class="cls-4" points="3662.26 1770.87 3697.96 1770.87 3709.85 1654.88 3697.96 1556.72 3644.42 1556.72 3665.24 1654.88 3662.26 1770.87"/><circle class="cls-30" cx="3635.81" cy="1389.54" r="5.47"/><circle class="cls-30" cx="3635.81" cy="1518.26" r="5.47"/><circle class="cls-24" cx="3756.11" cy="1437.5" r="5.47"/><circle class="cls-24" cx="3513.83" cy="1434.97" r="5.47"/><circle class="cls-18" cx="3684.6" cy="1655.38" r="5.47"/><circle class="cls-30" cx="3681.23" cy="1761.38" r="5.47"/><circle class="cls-30" cx="3597.11" cy="1763.06" r="5.47"/><circle class="cls-18" cx="3588.7" cy="1652.86" r="5.47"/><circle class="cls-18" cx="3635.81" cy="1294.48" r="5.47"/><text class="cls-41" transform="translate(2057 481)"> </text><text class="cls-68" transform="translate(2279 373.85)">h<tspan class="cls-69" x="19.52" y="0">o</tspan><tspan x="37.95" y="0">w a</tspan><tspan class="cls-70" x="86.42" y="0">r</tspan><tspan class="cls-71" x="99.16" y="0">e </tspan><tspan class="cls-72" x="125.28" y="0">y</tspan><tspan class="cls-73" x="140.12" y="0">ou </tspan><tspan class="cls-74" x="187.27" y="0">fe</tspan><tspan class="cls-71" x="214.36" y="0">eling today? </tspan></text><path d="M256.86,782s-13,4-34-6-81,8-97,5c-14.79-2.77-33-3-33-3,4-6,11-20.79,8.5-47.9s6.43-33,11.5-55.1c17.8-77.54,107.64-62.08,129-6,6.39,16.76,13.36,27.59,12.18,57.8A312.73,312.73,0,0,0,256.86,782Z" transform="translate(63.14 582)"/><path class="cls-4" d="M234.86,690.38c0,33.9-25.52,81.62-57,81.62s-57-47.72-57-81.62,25.52-61.38,57-61.38S234.86,656.48,234.86,690.38Z" transform="translate(63.14 582)"/><path d="M195.86,630c-51-26-80.73,37.48-76,63,0,0,12.94-19.1,26-24C177.86,657,195.86,630,195.86,630Z" transform="translate(63.14 582)"/><path class="cls-4" d="M312.2,985.75c-1.79-3.65-2.76-9.39-4-10.35a13.8,13.8,0,0,0-8.78-7c-3.78-1.1-7.7.28-10.77,3.33,0,0-.05-.06-.08-.07-.69-.31-1.79,1.56-2.91,4.09a22.73,22.73,0,0,0-1.26,2.73h0c0,.08,0,.16,0,.24-.22.61-.42,1.25-.59,1.9-.34.91-.65,1.79-.93,2.6-1.63,4.72-1.87,9-.54,9.61s3.69-2.72,5.32-7.38l.35.29q-.45,1.23-.87,2.58c-2,6.62-2.31,12.47-.69,13.09s4.56-4.26,6.56-10.87c.18-.6.35-1.18.5-1.76l.18.06c-.24.86-.47,1.75-.68,2.67-1.7,7.4-1.73,13.79-.08,14.26s4.38-5.14,6.08-12.54c.23-1,.43-2,.6-3,0,.72-.05,1.44-.06,2.19,0,6.76,1.37,12.28,3.08,12.32s3.11-5.39,3.12-12.15c0-1.37-.06-2.68-.16-3.91.14-.08.29-.16.42-.25.1.27.2.52.31.76,2.09,4.26,5.13,6.94,6.78,6S314.29,990,312.2,985.75Z" transform="translate(63.14 582)"/><path class="cls-4" d="M73.63,985.21c-.28-.81-.59-1.69-.92-2.6-.18-.65-.38-1.29-.6-1.9l0-.24h0a21.28,21.28,0,0,0-1.26-2.73c-1.12-2.53-2.21-4.4-2.91-4.09,0,0,0,.05-.08.07-3.07-3.05-7-4.43-10.77-3.33a13.82,13.82,0,0,0-8.78,7c-1.28,1-2.25,6.69-4,10.35-2.09,4.26-2.44,8.49-.78,9.46s4.69-1.72,6.78-6a5.75,5.75,0,0,0,.31-.76c.13.09.28.17.42.25-.1,1.23-.16,2.54-.16,3.91,0,6.76,1.41,12.2,3.12,12.15S57,1001.22,57,994.46c0-.68,0-1.35-.05-2,.12.64.25,1.28.4,1.94,1.6,7,4.24,12.21,5.9,11.75s1.71-6.49.11-13.45c-.15-.64-.31-1.26-.47-1.88l.15-.05c.16.58.32,1.16.5,1.76,2,6.61,4.94,11.48,6.57,10.87s1.3-6.47-.7-13.09Q69,989,68.5,987.73l.35-.29c1.63,4.66,4,8,5.32,7.38S75.26,989.93,73.63,985.21Z" transform="translate(63.14 582)"/><polygon class="cls-4" points="264.08 1842.79 306.51 1842.79 320.65 1704.9 306.51 1588.23 242.87 1588.23 267.62 1704.9 264.08 1842.79"/><polygon class="cls-4" points="211.05 1842.79 168.62 1842.79 154.48 1704.9 168.62 1588.23 232.26 1588.23 207.51 1704.9 211.05 1842.79"/><path class="cls-4" d="M340.92,853l-95.15-64.51a9.94,9.94,0,0,0-6.3-1.35,11,11,0,0,0-1.53-.12H116.51a10.56,10.56,0,0,0-1.27.08,9.92,9.92,0,0,0-5.94,1.39L13.92,853c-2.46,1.48-1.75,2.23-1,5L45.65,979.51l23.76-4.69L52.92,868c-.32-2.71-.45-3.8,2-5l50.62-27.58v174.34H242.85a.59.59,0,0,0,.59-.57L248,834.52l54,29.48c2.45,1.2,1.62,2.7,1.29,5.41L285.65,974.82l23.76,4.69L342.92,858C343.66,855.23,343.38,854.48,340.92,853Z" transform="translate(63.14 582)"/><path d="M198.06,1272c0-19.53,11.08-35.36,24.75-35.36s24.74,15.83,24.74,35.36" transform="translate(63.14 582)"/><path class="cls-4" d="M260,1849h51.83a.17.17,0,0,1,.17.17v6.21a1.62,1.62,0,0,1-1.62,1.62H261.62a1.62,1.62,0,0,1-1.62-1.62V1849A0,0,0,0,1,260,1849Z"/><path d="M100.06,1272c0-19.53,11.08-35.36,24.75-35.36s24.74,15.83,24.74,35.36" transform="translate(63.14 582)"/><path class="cls-4" d="M162,1849h51.83a.17.17,0,0,1,.17.17v6.21a1.62,1.62,0,0,1-1.62,1.62H163.62a1.62,1.62,0,0,1-1.62-1.62V1849A0,0,0,0,1,162,1849Z"/><polygon class="cls-4" points="253.36 1392.01 229.72 1392.01 226.44 1342.11 255.33 1342.11 253.36 1392.01"/><path class="cls-4" d="M120.73,689.76h4.66a8.78,8.78,0,0,1,8.78,8.78v7.84A9.57,9.57,0,0,1,124.6,716h-3.08a9.57,9.57,0,0,1-9.57-9.57v-7.84a8.78,8.78,0,0,1,8.78-8.78Z" transform="translate(-516.12 1410.98) rotate(-90.25)"/><path class="cls-4" d="M245.53,700.79v3.07c0,5.31,1.09,9.57-9.53,9.62l-7.84,0a8.79,8.79,0,0,1-8.82-8.74l0-4.66a8.79,8.79,0,0,1,8.75-8.82l7.83,0A9.58,9.58,0,0,1,245.53,700.79Z" transform="translate(63.14 582)"/><circle class="cls-18" cx="98.5" cy="1444.5" r="6.5"/><circle class="cls-30" cx="240.5" cy="1522.5" r="6.5"/><circle class="cls-24" cx="123.5" cy="1569.5" r="6.5"/><circle class="cls-18" cx="181.5" cy="1709.5" r="6.5"/><circle class="cls-20" cx="188.5" cy="1836.5" r="6.5"/><circle class="cls-18" cx="297.5" cy="1709.5" r="6.5"/><circle class="cls-20" cx="285.5" cy="1836.5" r="6.5"/><circle class="cls-18" cx="385.5" cy="1444.5" r="6.5"/><circle class="cls-24" cx="359.5" cy="1568.5" r="6.5"/><path class="cls-16" d="M219,818a12.78,12.78,0,0,0-9.8,4.56,12.76,12.76,0,0,0-9.79-4.56c-7.08,0-13.76,5.93-12.81,12.8,1,7.54,22.53,20.16,22.53,20.16,1.37-.81,21.52-11.82,22.67-20.16C232.72,824,226,818,219,818Z" transform="translate(63.14 582)"/><circle class="cls-24" cx="272.5" cy="1416.5" r="6.5"/><circle class="cls-18" cx="240.5" cy="1253.5" r="6.5"/><circle class="cls-30" cx="298.89" cy="1284.5" r="6.5"/><circle class="cls-30" cx="182.89" cy="1284.5" r="6.5"/><circle class="cls-24" cx="222.38" cy="1276.5" r="6.5"/><circle class="cls-24" cx="257.38" cy="1276.5" r="6.5"/><circle class="cls-18" cx="240.89" cy="1304.5" r="6.5"/><path d="M197.25,744.63a19.5,19.5,0,0,1-39,0" transform="translate(63.14 582)"/><circle class="cls-30" cx="240.89" cy="1336.38" r="6.5"/><path d="M237.82,696c3.08,2.16,13.11,1.94,13-.64-1.7-60.1-54.05-88.44-90-56.32,0,0,23.74,22.37,47.3,34.3C224.69,681.69,234.75,693.84,237.82,696Z" transform="translate(63.14 582)"/></svg>